# Blender v2.78 (sub 0) OBJ File: 'BaseScene.blend'
# www.blender.org
o Cube
v -0.085000 -0.195495 0.199387
v -0.085000 -0.176701 0.206228
v -0.085000 -0.137352 0.039639
v -0.085000 -0.118558 0.046480
v 0.085000 -0.195495 0.199387
v 0.085000 -0.176701 0.206228
v 0.085000 -0.137352 0.039639
v 0.085000 -0.118558 0.046480
v -0.050000 -0.500000 0.050000
v -0.050000 -0.100000 0.050000
v -0.050000 -0.500000 -0.050000
v -0.050000 -0.100000 -0.050000
v 0.050000 -0.500000 0.050000
v 0.050000 -0.100000 0.050000
v 0.050000 -0.500000 -0.050000
v 0.050000 -0.100000 -0.050000
v 0.050000 -0.137352 0.039639
v 0.050000 -0.141123 0.050000
v -0.050000 -0.137352 0.039639
v -0.050000 -0.141123 0.050000
v 0.050000 -0.118558 0.046480
v -0.050000 -0.118558 0.046480
v 0.050000 -0.119839 0.050000
v -0.050000 -0.119839 0.050000
vt 1.0000 0.0000
vt 0.0000 1.0000
vt 0.0000 0.0000
vt 0.0000 0.0000
vt 1.0000 1.0000
vt 0.0000 1.0000
vt 1.0000 0.0000
vt 0.0000 1.0000
vt 0.0000 0.0000
vt 1.0000 0.0000
vt 0.0000 1.0000
vt 0.0000 0.0000
vt 0.8536 0.1464
vt 0.0000 0.5000
vt 0.1464 0.8536
vt 0.8536 0.1464
vt 0.0000 0.5000
vt 0.1464 0.8536
vt 0.8536 0.1464
vt 0.1464 0.1464
vt 0.0000 0.5000
vt 1.0000 0.0000
vt 0.0000 1.0000
vt 0.0000 0.0000
vt 0.8536 0.8536
vt 0.5000 0.0000
vt 0.1464 0.1464
vt 1.0000 0.0000
vt 0.0000 1.0000
vt 0.0000 0.0000
vt 1.0000 0.0000
vt 0.0000 1.0000
vt 0.0000 0.0000
vt 0.0000 0.0000
vt 1.0000 1.0000
vt 0.0000 1.0000
vt 1.0000 0.0000
vt 0.0000 1.0000
vt 0.0000 0.0000
vt 1.0000 1.0000
vt 1.0000 0.0000
vt 1.0000 1.0000
vt 1.0000 1.0000
vt 0.5000 1.0000
vt 1.0000 0.5000
vt 0.8536 0.8536
vt 0.1464 0.1464
vt 0.5000 0.0000
vt 0.5000 1.0000
vt 1.0000 0.5000
vt 0.8536 0.8536
vt 0.1464 0.1464
vt 0.5000 0.0000
vt 0.1464 0.8536
vt 0.5000 1.0000
vt 0.8536 0.8536
vt 1.0000 0.5000
vt 0.5000 0.0000
vt 1.0000 1.0000
vt 0.1464 0.8536
vt 0.5000 1.0000
vt 0.0000 0.5000
vt 1.0000 0.5000
vt 0.8536 0.1464
vt 1.0000 1.0000
vt 1.0000 1.0000
vt 1.0000 1.0000
vt 1.0000 0.0000
vt 1.0000 1.0000
vn -1.0000 0.0000 0.0000
vn 0.0000 0.3420 -0.9397
vn 1.0000 0.0000 0.0000
vn 0.0000 -0.3420 0.9397
vn 0.0000 -0.9397 -0.3420
vn 0.0000 0.9397 0.3420
vn 0.0000 0.0000 -1.0000
vn 0.0000 0.0000 1.0000
vn 0.0000 -1.0000 0.0000
vn 0.0000 1.0000 0.0000
s off
f 2/1/1 3/2/1 1/3/1
f 3/4/2 22/5/2 19/6/2
f 8/7/3 5/8/3 7/9/3
f 6/10/4 1/11/4 5/12/4
f 18/13/5 5/14/5 1/15/5
f 24/16/6 2/17/6 6/18/6
f 22/19/1 10/20/1 12/21/1
f 12/22/7 15/23/7 11/24/7
f 16/25/3 21/26/3 17/27/3
f 18/28/8 9/29/8 13/30/8
f 15/31/9 9/29/9 11/24/9
f 12/22/10 14/32/10 16/33/10
f 17/34/2 8/35/2 7/36/2
f 23/37/8 10/38/8 24/39/8
f 2/1/1 4/40/1 3/2/1
f 3/4/2 4/41/2 22/5/2
f 8/7/3 6/42/3 5/8/3
f 6/10/4 2/43/4 1/11/4
f 1/15/5 3/44/5 20/45/5
f 3/44/5 19/46/5 20/45/5
f 7/47/5 5/14/5 18/13/5
f 18/13/5 17/48/5 7/47/5
f 1/15/5 20/45/5 18/13/5
f 6/18/6 8/49/6 23/50/6
f 8/49/6 21/51/6 23/50/6
f 4/52/6 2/17/6 24/16/6
f 24/16/6 22/53/6 4/52/6
f 6/18/6 23/50/6 24/16/6
f 11/54/1 9/55/1 20/56/1
f 11/54/1 20/56/1 19/57/1
f 22/19/1 24/58/1 10/20/1
f 12/21/1 11/54/1 19/57/1
f 19/57/1 22/19/1 12/21/1
f 12/22/7 16/59/7 15/23/7
f 13/60/3 15/61/3 18/62/3
f 14/63/3 23/64/3 21/26/3
f 17/27/3 18/62/3 15/61/3
f 14/63/3 21/26/3 16/25/3
f 17/27/3 15/61/3 16/25/3
f 18/28/8 20/65/8 9/29/8
f 15/31/9 13/66/9 9/29/9
f 12/22/10 10/67/10 14/32/10
f 17/34/2 21/68/2 8/35/2
f 23/37/8 14/69/8 10/38/8
