# Blender v2.78 (sub 0) OBJ File: 'window.blend'
# www.blender.org
o Cube_Cube.005
v -0.050000 0.480200 0.009900
v -0.050000 0.480200 -0.009900
v 0.050000 0.480200 0.009900
v 0.050000 0.480200 -0.009900
v -0.050000 0.519800 0.009900
v -0.050000 0.519800 -0.009900
v 0.050000 0.519800 0.009900
v 0.050000 0.519800 -0.009900
v -0.050000 0.480006 -0.475000
v -0.050000 0.519994 -0.475002
v 0.050000 0.518757 -0.475000
v 0.050000 0.480006 -0.475002
v -0.050000 0.480006 0.475000
v -0.050000 0.519994 0.475002
v 0.050000 0.480000 0.475000
v 0.050000 0.520000 0.475000
v 0.050000 0.520000 -0.475000
v -0.500000 -0.500000 0.500000
v -0.500000 1.500000 0.500000
v -0.500000 -0.500000 -0.500000
v -0.500000 1.500000 -0.500000
v 0.500000 -0.500000 0.500000
v 0.500000 1.500000 0.500000
v 0.500000 -0.500000 -0.500000
v 0.500000 1.500000 -0.500000
v 0.500000 -0.450000 0.475000
v -0.500000 -0.450000 0.475000
v 0.500000 -0.450000 -0.475000
v -0.500000 -0.450000 -0.475000
v 0.500000 -0.064898 0.475000
v -0.500000 0.885101 0.475000
v 0.500000 1.450000 -0.475000
v -0.500000 1.450000 -0.475000
v 0.500000 1.450000 0.475000
v -0.500000 1.450000 0.475000
v -0.050000 0.520000 0.475000
v -0.050000 0.480000 0.475000
v 0.050000 0.480000 -0.475000
v -0.050000 0.520000 -0.475000
v -0.050000 0.480000 -0.475000
v -0.050000 0.480006 -0.475000
v 0.046876 0.480006 -0.475000
v 0.050000 0.480006 -0.475000
v 0.050000 0.480006 -0.475002
v 0.050000 -0.450000 -0.009997
v -0.050000 -0.450000 -0.009997
v -0.050000 0.480006 0.475000
v 0.050000 -0.450000 0.009997
v -0.050000 -0.450000 0.009997
v -0.050000 0.519994 0.475002
v -0.050000 0.519994 0.475000
v 0.050000 0.519994 0.475000
v 0.050000 0.519994 -0.475000
v -0.050000 0.519994 -0.475000
v -0.050000 1.450000 -0.009997
v 0.050000 1.450000 -0.009997
v 0.050000 1.450000 0.009378
v 0.050000 1.450000 0.009997
v -0.050000 1.450000 0.009997
v 0.050000 0.519994 0.475000
v -0.050000 0.481244 -0.475000
v 0.050000 0.519994 -0.475000
vt 0.0000 0.0000
vt 0.0000 0.0000
vt 0.0000 0.0000
vt 0.0000 0.0000
vt 0.0000 0.0000
vt 0.0000 0.0000
vt 0.0000 0.0000
vt 0.0000 0.0000
vt 0.0000 0.0000
vt 0.0000 0.0000
vt 0.0000 0.0000
vt 0.0000 0.0000
vt 0.0000 0.0000
vt 0.0000 0.0000
vt 0.0000 0.0000
vt 0.0000 0.0000
vt 0.0000 0.0000
vt 0.0000 0.0000
vt 0.0000 0.0000
vt 0.0000 0.0000
vt 0.0000 0.0000
vt 0.0000 0.0000
vt 0.0000 0.0000
vt 0.0000 0.0000
vt 0.0000 0.0000
vt 0.0000 0.0000
vt 0.0000 0.0000
vt 0.0000 0.0000
vt 0.0000 0.0000
vt 0.0000 0.0000
vt 0.0000 0.0000
vt 0.0000 0.0000
vt 0.0000 0.0000
vt 0.0000 0.0000
vt 0.0000 0.0000
vt 0.0000 0.0000
vt 0.0000 0.0000
vt 0.0000 0.0000
vt 0.0000 0.0000
vt 0.0000 0.0000
vt 0.0000 0.0000
vt 0.0000 0.0000
vt 0.0000 0.0000
vt 0.0000 0.0000
vt 0.0000 0.0000
vt 0.0000 0.0000
vt 0.0000 0.0000
vt 0.0000 0.0000
vt 0.0000 0.0000
vt 0.0000 0.0000
vt 0.0000 0.0000
vt 0.0000 0.0000
vt 0.0000 0.0000
vt 0.0000 0.0000
vt 0.0000 0.0000
vt 0.0000 0.0000
vt 0.0000 0.0000
vt 1.0000 0.0000
vt 0.0000 1.0000
vt 0.0000 0.0000
vt 0.0000 0.0000
vt 1.0000 1.0000
vn -1.0000 0.0000 0.0000
vn 0.0000 -0.0001 1.0000
vn 0.0000 -0.0001 -1.0000
vn 1.0000 0.0000 0.0000
vn 0.0000 -1.0000 0.0004
vn -0.9777 0.0000 -0.2102
vn 0.0000 -1.0000 -0.0004
vn -0.0001 1.0000 -0.0004
vn 0.0000 0.0000 1.0000
vn 0.0007 0.3557 0.9346
vn 0.0000 0.0000 -1.0000
vn 0.0000 -1.0000 0.0000
vn 0.0000 1.0000 0.0000
vn 0.0000 0.0001 -1.0000
vn 0.0000 -0.3558 -0.9346
vn 0.0000 0.0001 1.0000
vn 0.0124 0.9999 0.0004
vn 0.0000 1.0000 0.0004
vn -0.0001 -1.0000 -0.0004
vn 0.0000 1.0000 -0.0004
vn -0.0001 1.0000 0.0000
vn 0.0053 0.0000 1.0000
vn 0.0002 -1.0000 0.0000
vn -0.2684 -0.3408 -0.9010
vn 0.0053 0.0000 -1.0000
vn 0.0001 0.0001 -1.0000
vn 0.0000 0.9995 -0.0326
vn 0.0058 0.0000 1.0000
vn 0.0001 0.0001 1.0000
s off
f 59/1/1 6/2/1 5/3/1
f 58/4/2 5/3/2 7/5/2
f 55/6/3 8/7/3 6/2/3
f 57/8/4 58/4/4 7/5/4
f 9/9/1 6/2/1 10/10/1
f 4/11/5 9/9/5 12/12/5
f 6/2/6 62/13/6 11/14/6
f 11/14/4 4/11/4 12/12/4
f 13/15/1 51/16/1 1/17/1
f 15/18/7 1/17/7 3/19/7
f 51/16/8 16/20/8 7/5/8
f 60/21/4 15/18/4 3/19/4
f 1/17/1 6/2/1 2/22/1
f 3/19/4 8/7/4 7/5/4
f 9/9/9 41/23/9 40/24/9
f 12/12/10 42/25/10 38/26/10
f 21/27/11 24/28/11 20/29/11
f 18/30/1 29/31/1 20/29/1
f 24/28/4 26/32/4 22/33/4
f 24/28/12 18/30/12 20/29/12
f 21/27/13 23/34/13 25/35/13
f 28/36/9 38/26/9 42/25/9
f 34/37/4 25/35/4 23/34/4
f 33/38/1 35/39/1 19/40/1
f 27/41/13 49/42/13 29/31/13
f 34/37/12 35/39/12 58/4/12
f 27/41/11 37/43/11 30/44/11
f 11/14/9 17/45/9 10/10/9
f 37/43/9 13/15/9 47/46/9
f 36/47/11 31/48/11 16/20/11
f 42/25/9 9/9/9 40/24/9
f 45/49/4 3/19/4 48/50/4
f 17/45/1 12/12/1 11/14/1
f 46/51/14 4/11/14 45/49/14
f 14/52/9 50/53/9 51/16/9
f 14/52/15 36/47/15 16/20/15
f 48/50/16 1/17/16 49/42/16
f 9/9/9 33/38/9 29/31/9
f 56/54/12 32/55/12 57/8/12
f 49/42/1 2/22/1 46/51/1
f 15/18/9 16/20/9 52/56/9
f 45/49/13 26/32/13 28/36/13
f 9/9/4 10/10/4 61/57/4
f 47/46/9 13/15/9 15/18/9
f 22/58/9 19/59/9 18/30/9
f 14/52/9 13/15/9 47/46/9
f 59/1/1 55/6/1 6/2/1
f 58/4/2 59/1/2 5/3/2
f 55/6/3 56/54/3 8/7/3
f 7/5/4 8/7/4 56/54/4
f 56/54/4 57/8/4 7/5/4
f 9/9/1 2/22/1 6/2/1
f 4/11/5 2/22/5 9/9/5
f 11/14/17 10/10/17 6/2/17
f 6/2/18 8/7/18 62/13/18
f 11/14/4 62/13/4 8/7/4
f 8/7/4 4/11/4 11/14/4
f 5/3/1 1/17/1 51/16/1
f 13/15/1 14/52/1 51/16/1
f 15/18/19 13/15/19 1/17/19
f 7/5/20 5/3/20 51/16/20
f 51/16/9 50/53/9 14/52/9
f 16/20/4 60/21/4 7/5/4
f 51/16/21 14/52/21 16/20/21
f 3/19/4 7/5/4 60/21/4
f 60/21/9 16/20/9 15/18/9
f 1/17/1 5/3/1 6/2/1
f 3/19/4 4/11/4 8/7/4
f 21/27/11 25/35/11 24/28/11
f 18/30/1 19/40/1 31/48/1
f 18/30/1 31/48/1 27/41/1
f 33/38/1 21/27/1 20/29/1
f 18/30/1 27/41/1 29/31/1
f 29/31/1 33/38/1 20/29/1
f 24/28/4 25/35/4 32/55/4
f 24/28/4 32/55/4 28/36/4
f 26/32/4 30/44/4 22/33/4
f 24/28/4 28/36/4 26/32/4
f 24/28/12 22/33/12 18/30/12
f 21/27/13 19/40/13 23/34/13
f 40/24/9 29/31/9 42/25/9
f 28/36/9 32/55/9 11/14/9
f 53/60/9 11/14/9 32/55/9
f 32/55/22 17/45/22 53/60/22
f 42/25/9 29/31/9 28/36/9
f 28/36/9 11/14/9 38/26/9
f 23/34/4 22/33/4 30/44/4
f 34/37/4 32/55/4 25/35/4
f 23/34/4 30/44/4 34/37/4
f 19/40/1 21/27/1 33/38/1
f 35/39/1 31/48/1 19/40/1
f 27/41/13 26/32/13 48/50/13
f 49/42/13 46/51/13 29/31/13
f 27/41/13 48/50/13 49/42/13
f 35/39/12 33/38/12 55/6/12
f 35/39/12 55/6/12 59/1/12
f 58/4/23 57/8/23 34/37/23
f 35/39/12 59/1/12 58/4/12
f 30/44/11 26/32/11 27/41/11
f 27/41/11 31/48/11 37/43/11
f 37/43/11 47/46/11 15/18/11
f 15/18/11 30/44/11 37/43/11
f 33/38/9 10/10/9 17/45/9
f 17/45/9 32/55/9 33/38/9
f 34/37/11 30/44/11 52/56/11
f 30/44/11 15/18/11 52/56/11
f 31/48/11 35/39/11 34/37/11
f 47/46/11 37/43/11 31/48/11
f 36/47/24 14/52/24 31/48/24
f 34/37/25 52/56/25 16/20/25
f 14/52/26 47/46/26 31/48/26
f 34/37/11 16/20/11 31/48/11
f 42/25/27 12/12/27 9/9/27
f 45/49/4 4/11/4 3/19/4
f 11/14/9 53/60/9 17/45/9
f 12/12/1 38/26/1 11/14/1
f 46/51/14 2/22/14 4/11/14
f 48/50/16 3/19/16 1/17/16
f 29/31/28 40/24/28 9/9/28
f 9/9/29 10/10/29 33/38/29
f 56/54/12 55/6/12 33/38/12
f 32/55/12 34/37/12 57/8/12
f 56/54/12 33/38/12 32/55/12
f 49/42/1 1/17/1 2/22/1
f 28/36/13 29/31/13 45/49/13
f 45/49/13 48/50/13 26/32/13
f 29/31/13 46/51/13 45/49/13
f 61/57/9 41/23/9 9/9/9
f 10/10/4 39/61/4 61/57/4
f 22/58/9 23/62/9 19/59/9
l 43 44
l 12 44
l 47 50
l 10 54
l 53 43
l 41 54
