# Blender v2.78 (sub 0) OBJ File: 'window.blend'
# www.blender.org
o Cube_Cube.005
v 0.009900 0.480200 0.050000
v -0.009900 0.480200 0.050000
v 0.009900 0.480200 -0.050000
v -0.009900 0.480200 -0.050000
v 0.009900 0.519800 0.050000
v -0.009900 0.519800 0.050000
v 0.009900 0.519800 -0.050000
v -0.009900 0.519800 -0.050000
v -0.475000 0.480006 0.050000
v -0.475002 0.519994 0.050000
v -0.475000 0.518757 -0.050000
v -0.475002 0.480006 -0.050000
v 0.475000 0.480006 0.050000
v 0.475002 0.519994 0.050000
v 0.475000 0.480000 -0.050000
v 0.475000 0.520000 -0.050000
v -0.475000 0.520000 -0.050000
v 0.500000 -0.500000 0.500000
v 0.500000 1.500000 0.500000
v -0.500000 -0.500000 0.500000
v -0.500000 1.500000 0.500000
v 0.500000 -0.500000 -0.500000
v 0.500000 1.500000 -0.500000
v -0.500000 -0.500000 -0.500000
v -0.500000 1.500000 -0.500000
v 0.475000 -0.450000 -0.500000
v 0.475000 -0.450000 0.500000
v -0.475000 -0.450000 -0.500000
v -0.475000 -0.450000 0.500000
v 0.475000 -0.064898 -0.500000
v 0.475000 0.885101 0.500000
v -0.475000 1.450000 -0.500000
v -0.475000 1.450000 0.500000
v 0.475000 1.450000 -0.500000
v 0.475000 1.450000 0.500000
v 0.475000 0.520000 0.050000
v 0.475000 0.480000 0.050000
v -0.475000 0.480000 -0.050000
v -0.475000 0.520000 0.050000
v -0.475000 0.480000 0.050000
v -0.475000 0.480006 0.050000
v -0.475000 0.480006 -0.046876
v -0.475000 0.480006 -0.050000
v -0.475002 0.480006 -0.050000
v -0.009997 -0.450000 -0.050000
v -0.009997 -0.450000 0.050000
v 0.475000 0.480006 0.050000
v 0.009997 -0.450000 -0.050000
v 0.009997 -0.450000 0.050000
v 0.475002 0.519994 0.050000
v 0.475000 0.519994 0.050000
v 0.475000 0.519994 -0.050000
v -0.475000 0.519994 -0.050000
v -0.475000 0.519994 0.050000
v -0.009997 1.450000 0.050000
v -0.009997 1.450000 -0.050000
v 0.009378 1.450000 -0.050000
v 0.009997 1.450000 -0.050000
v 0.009997 1.450000 0.050000
v 0.475000 0.519994 -0.050000
v -0.475000 0.481244 0.050000
v -0.475000 0.519994 -0.050000
vt 0.0000 0.0000
vt 0.0000 0.0000
vt 0.0000 0.0000
vt 0.0000 0.0000
vt 0.0000 0.0000
vt 0.0000 0.0000
vt 0.0000 0.0000
vt 0.0000 0.0000
vt 0.0000 0.0000
vt 0.0000 0.0000
vt 0.0000 0.0000
vt 0.0000 0.0000
vt 0.0000 0.0000
vt 0.0000 0.0000
vt 0.0000 0.0000
vt 0.0000 0.0000
vt 0.0000 0.0000
vt 0.0000 0.0000
vt 0.0000 0.0000
vt 0.0000 0.0000
vt 0.0000 0.0000
vt 0.0000 0.0000
vt 0.0000 0.0000
vt 0.0000 0.0000
vt 0.0000 0.0000
vt 0.0000 0.0000
vt 0.0000 0.0000
vt 0.0000 0.0000
vt 0.0000 0.0000
vt 0.0000 0.0000
vt 0.0000 0.0000
vt 0.0000 0.0000
vt 0.0000 0.0000
vt 0.0000 0.0000
vt 0.0000 0.0000
vt 0.0000 0.0000
vt 0.0000 0.0000
vt 0.0000 0.0000
vt 0.0000 0.0000
vt 0.0000 0.0000
vt 0.0000 0.0000
vt 0.0000 0.0000
vt 0.0000 0.0000
vt 0.0000 0.0000
vt 0.0000 0.0000
vt 0.0000 0.0000
vt 0.0000 0.0000
vt 0.0000 0.0000
vt 0.0000 0.0000
vt 0.0000 0.0000
vt 0.0000 0.0000
vt 0.0000 0.0000
vt 0.0000 0.0000
vt 0.0000 0.0000
vt 0.0000 0.0000
vt 0.0000 0.0000
vt 0.0000 0.0000
vt 1.0000 0.0000
vt 0.0000 1.0000
vt 0.0000 0.0000
vt 0.0000 0.0000
vt 1.0000 1.0000
vn 0.0000 0.0000 1.0000
vn 1.0000 -0.0001 -0.0000
vn -1.0000 -0.0001 0.0000
vn 0.0000 -0.0000 -1.0000
vn 0.0004 -1.0000 -0.0000
vn -0.2102 0.0000 0.9777
vn -0.0004 -1.0000 0.0000
vn 0.0000 1.0000 0.0000
vn 0.9376 0.3477 -0.0007
vn -1.0000 0.0000 0.0000
vn 0.0000 -1.0000 0.0000
vn 1.0000 -0.0000 0.0000
vn -1.0000 0.0001 0.0000
vn -0.9382 -0.3462 0.0000
vn 1.0000 0.0001 -0.0000
vn 0.0004 0.9999 -0.0124
vn 0.0004 1.0000 0.0000
vn -0.0004 -1.0000 0.0001
vn -0.0004 1.0000 0.0000
vn -0.0002 -1.0000 0.0000
vn -0.9015 -0.3339 0.2752
vn -1.0000 0.0001 -0.0001
vn -0.0030 0.0000 1.0000
vn 1.0000 0.0001 -0.0001
s off
f 59/1/1 6/2/1 5/3/1
f 58/4/2 5/3/2 7/5/2
f 55/6/3 8/7/3 6/2/3
f 57/8/4 58/4/4 7/5/4
f 9/9/1 6/2/1 10/10/1
f 4/11/5 9/9/5 12/12/5
f 6/2/6 62/13/6 11/14/6
f 11/14/4 4/11/4 12/12/4
f 13/15/1 51/16/1 1/17/1
f 15/18/7 1/17/7 3/19/7
f 50/20/8 60/21/8 51/16/8
f 60/21/4 15/18/4 3/19/4
f 1/17/1 6/2/1 2/22/1
f 4/11/4 7/5/4 3/19/4
f 9/9/1 41/23/1 40/24/1
f 12/12/9 42/25/9 38/26/9
f 21/27/10 24/28/10 20/29/10
f 27/30/1 29/31/1 20/29/1
f 24/28/4 26/32/4 22/33/4
f 24/28/11 18/34/11 20/29/11
f 21/27/8 23/35/8 25/36/8
f 28/37/12 38/26/12 42/25/12
f 34/38/4 25/36/4 23/35/4
f 33/39/1 35/40/1 19/41/1
f 27/30/8 49/42/8 29/31/8
f 34/38/11 35/40/11 58/4/11
f 27/30/10 37/43/10 30/44/10
f 11/14/12 17/45/12 10/10/12
f 37/43/1 13/15/1 47/46/1
f 36/47/10 31/48/10 16/49/10
f 42/25/12 9/9/12 40/24/12
f 45/50/4 3/19/4 48/51/4
f 17/45/12 38/26/12 11/14/12
f 46/52/13 4/11/13 45/50/13
f 14/53/1 50/20/1 51/16/1
f 14/53/14 36/47/14 16/49/14
f 48/51/15 1/17/15 49/42/15
f 9/9/12 33/39/12 29/31/12
f 56/54/11 32/55/11 57/8/11
f 49/42/1 2/22/1 46/52/1
f 15/18/12 16/49/12 52/56/12
f 45/50/8 26/32/8 28/37/8
f 9/9/4 10/10/4 61/57/4
f 47/46/1 13/15/1 15/18/1
f 22/58/12 19/59/12 18/34/12
f 14/53/1 13/15/1 47/46/1
f 59/1/1 55/6/1 6/2/1
f 58/4/2 59/1/2 5/3/2
f 55/6/3 56/54/3 8/7/3
f 7/5/4 8/7/4 56/54/4
f 56/54/4 57/8/4 7/5/4
f 9/9/1 2/22/1 6/2/1
f 4/11/5 2/22/5 9/9/5
f 11/14/16 10/10/16 6/2/16
f 6/2/17 8/7/17 62/13/17
f 11/14/4 62/13/4 8/7/4
f 8/7/4 4/11/4 11/14/4
f 5/3/1 1/17/1 51/16/1
f 13/15/1 14/53/1 51/16/1
f 15/18/18 13/15/18 1/17/18
f 7/5/19 5/3/19 51/16/19
f 50/20/1 14/53/1 16/49/1
f 7/5/19 51/16/19 60/21/19
f 50/20/10 16/49/10 60/21/10
f 3/19/4 7/5/4 60/21/4
f 60/21/1 16/49/1 15/18/1
f 1/17/1 5/3/1 6/2/1
f 4/11/4 8/7/4 7/5/4
f 21/27/10 25/36/10 24/28/10
f 18/34/1 19/41/1 31/48/1
f 18/34/1 31/48/1 27/30/1
f 33/39/1 21/27/1 20/29/1
f 18/34/1 27/30/1 20/29/1
f 29/31/1 33/39/1 20/29/1
f 24/28/4 25/36/4 32/55/4
f 24/28/4 32/55/4 28/37/4
f 26/32/4 30/44/4 22/33/4
f 24/28/4 28/37/4 26/32/4
f 24/28/11 22/33/11 18/34/11
f 21/27/8 19/41/8 23/35/8
f 40/24/12 29/31/12 42/25/12
f 28/37/12 32/55/12 11/14/12
f 53/60/12 11/14/12 32/55/12
f 32/55/12 17/45/12 53/60/12
f 42/25/12 29/31/12 28/37/12
f 28/37/12 11/14/12 38/26/12
f 23/35/4 22/33/4 30/44/4
f 34/38/4 32/55/4 25/36/4
f 23/35/4 30/44/4 34/38/4
f 19/41/1 21/27/1 33/39/1
f 35/40/1 31/48/1 19/41/1
f 27/30/8 26/32/8 48/51/8
f 49/42/8 46/52/8 29/31/8
f 27/30/8 48/51/8 49/42/8
f 35/40/11 33/39/11 55/6/11
f 35/40/11 55/6/11 59/1/11
f 58/4/20 57/8/20 34/38/20
f 35/40/11 59/1/11 58/4/11
f 30/44/10 26/32/10 27/30/10
f 27/30/10 31/48/10 37/43/10
f 37/43/10 47/46/10 15/18/10
f 15/18/10 30/44/10 37/43/10
f 33/39/12 10/10/12 17/45/12
f 17/45/12 32/55/12 33/39/12
f 34/38/10 30/44/10 16/49/10
f 15/18/10 52/56/10 16/49/10
f 31/48/10 35/40/10 34/38/10
f 47/46/10 37/43/10 31/48/10
f 36/47/21 14/53/21 31/48/21
f 30/44/10 15/18/10 16/49/10
f 14/53/22 47/46/22 31/48/22
f 34/38/10 16/49/10 31/48/10
f 42/25/8 12/12/8 9/9/8
f 45/50/4 4/11/4 3/19/4
f 11/14/10 53/60/10 17/45/10
f 17/45/23 12/12/23 38/26/23
f 46/52/13 2/22/13 4/11/13
f 48/51/15 3/19/15 1/17/15
f 29/31/12 40/24/12 9/9/12
f 9/9/24 10/10/24 33/39/24
f 56/54/11 55/6/11 33/39/11
f 32/55/11 34/38/11 57/8/11
f 56/54/11 33/39/11 32/55/11
f 49/42/1 1/17/1 2/22/1
f 28/37/8 29/31/8 46/52/8
f 45/50/8 48/51/8 26/32/8
f 28/37/8 46/52/8 45/50/8
f 61/57/1 41/23/1 9/9/1
f 10/10/4 39/61/4 61/57/4
f 22/58/12 23/62/12 19/59/12
l 43 44
l 12 44
l 47 50
l 10 54
l 53 43
l 41 54
