# Blender v2.78 (sub 0) OBJ File: 'UpsidedownSlopeCornerZ-.blend'
# www.blender.org
o Cube
v -0.500000 0.500000 -0.500000
v -0.500000 0.500000 0.500000
v -0.500000 -0.500000 0.500000
v 0.500000 0.500000 -0.500000
v 0.500000 0.500000 0.500000
vt 0.0000 0.0000
vt 0.0000 0.0000
vt 0.0000 0.0000
vt 0.0000 0.0000
vt 0.0000 0.0000
vt 1.0000 0.0000
vt 1.0000 1.0000
vn 0.0000 0.0000 1.0000
vn -1.0000 -0.0000 0.0000
vn -0.0000 1.0000 0.0000
vn 0.7071 -0.7071 -0.0000
vn 0.0000 -0.7071 -0.7071
s off
f 2/1/1 3/2/1 5/3/1
f 2/1/2 1/4/2 3/2/2
f 5/3/3 1/4/3 2/1/3
f 4/5/4 5/3/4 3/2/4
f 3/2/5 1/6/5 4/7/5
f 5/3/3 4/5/3 1/4/3
