# Blender v2.78 (sub 0) OBJ File: 'upsidedownslopez-.blend'
# www.blender.org
mtllib upsidedownslopez-.mtl
o Cube
v -0.500000 0.500000 -0.500000
v -0.500000 0.500000 0.500000
v -0.500000 -0.500000 0.500000
v 0.500000 0.500000 -0.500000
v 0.500000 0.500000 0.500000
v 0.500000 -0.500000 0.500000
vt 0.0000 0.0000
vt 0.0000 0.0000
vt 0.0000 0.0000
vt 0.0000 0.0000
vt 0.0000 0.0000
vt 0.0000 0.0000
vt 1.0000 0.0000
vt 1.0000 1.0000
vn -1.0000 -0.0000 0.0000
vn 0.0000 0.0000 1.0000
vn 0.0000 -0.7071 -0.7071
vn 1.0000 0.0000 -0.0000
vn -0.0000 1.0000 0.0000
usemtl None
s off
f 2/1/1 1/2/1 3/3/1
f 2/1/2 6/4/2 5/5/2
f 3/3/3 4/6/3 6/4/3
f 5/5/4 6/7/4 4/8/4
f 5/5/5 1/2/5 2/1/5
f 2/1/2 3/3/2 6/4/2
f 3/3/3 1/2/3 4/6/3
f 5/5/5 4/6/5 1/2/5
