# Blender v2.78 (sub 0) OBJ File: 'upsidedownslopex-.blend'
# www.blender.org
mtllib upsidedownslopex-.mtl
o Cube
v -0.500000 0.500000 0.500000
v 0.500000 0.500000 0.500000
v 0.500000 -0.500000 0.500000
v -0.500000 0.500000 -0.500000
v 0.500000 0.500000 -0.500000
v 0.500000 -0.500000 -0.500000
vt 0.0000 0.0000
vt 0.0000 0.0000
vt 0.0000 0.0000
vt 0.0000 0.0000
vt 0.0000 0.0000
vt 0.0000 0.0000
vt 1.0000 0.0000
vt 1.0000 1.0000
vn 0.0000 -0.0000 1.0000
vn 1.0000 0.0000 0.0000
vn -0.7071 -0.7071 -0.0000
vn 0.0000 0.0000 -1.0000
vn 0.0000 1.0000 0.0000
usemtl None
s off
f 2/1/1 1/2/1 3/3/1
f 3/3/2 5/4/2 2/1/2
f 3/3/3 4/5/3 6/6/3
f 5/4/4 6/7/4 4/8/4
f 5/4/5 1/2/5 2/1/5
f 3/3/2 6/6/2 5/4/2
f 3/3/3 1/2/3 4/5/3
f 5/4/5 4/5/5 1/2/5
