# Blender v2.78 (sub 0) OBJ File: 'RoundCornerTop.blend'
# www.blender.org
mtllib curvecornerZ+.mtl
o Sphere
v 0.500000 -0.500000 -0.500000
v 0.500000 0.480785 -0.304909
v 0.500000 0.423880 -0.117316
v 0.500000 0.331470 0.055571
v 0.500000 0.207107 0.207107
v 0.500000 0.055570 0.331470
v 0.500000 -0.117317 0.423880
v 0.500000 -0.304910 0.480785
v 0.500000 -0.500000 0.500000
v 0.461940 0.480785 -0.308658
v 0.425342 0.423880 -0.124669
v 0.391614 0.331470 0.044896
v 0.362050 0.207107 0.193520
v 0.337788 0.055570 0.315493
v 0.319760 -0.117317 0.406128
v 0.308658 -0.304910 0.461940
v 0.304910 -0.500000 0.480786
v 0.425342 0.480785 -0.319760
v 0.353553 0.423880 -0.146446
v 0.287392 0.331470 0.013280
v 0.229402 0.207107 0.153282
v 0.181810 0.055570 0.268178
v 0.146447 -0.117317 0.353554
v 0.124670 -0.304910 0.406127
v 0.117316 -0.500000 0.423880
v 0.500000 0.500000 -0.499999
v 0.391614 0.480785 -0.337788
v 0.287392 0.423880 -0.181810
v 0.191342 0.331470 -0.038060
v 0.107153 0.207107 0.087938
v 0.038060 0.055570 0.191342
v -0.013280 -0.117317 0.268178
v -0.044895 -0.304910 0.315493
v -0.055570 -0.500000 0.331470
v 0.362050 0.480785 -0.362050
v 0.229402 0.423880 -0.229402
v 0.107152 0.331470 -0.107152
v 0.000000 0.207107 0.000000
v -0.087938 0.055570 0.087938
v -0.153281 -0.117317 0.153282
v -0.193520 -0.304910 0.193520
v -0.207107 -0.500000 0.207107
v 0.337788 0.480785 -0.391613
v 0.181810 0.423880 -0.287392
v 0.038060 0.331470 -0.191341
v -0.087938 0.207107 -0.107152
v -0.191342 0.055570 -0.038060
v -0.268178 -0.117317 0.013280
v -0.315493 -0.304910 0.044895
v -0.331470 -0.500000 0.055570
v 0.319760 0.480785 -0.425342
v 0.146447 0.423880 -0.353553
v -0.013280 0.331470 -0.287392
v -0.153281 0.207107 -0.229402
v -0.268177 0.055570 -0.181810
v -0.353553 -0.117317 -0.146446
v -0.406127 -0.304910 -0.124670
v -0.423880 -0.500000 -0.117316
v 0.308658 0.480785 -0.461939
v 0.124670 0.423880 -0.425342
v -0.044895 0.331470 -0.391613
v -0.193520 0.207107 -0.362050
v -0.315493 0.055570 -0.337788
v -0.406127 -0.117317 -0.319760
v -0.461939 -0.304910 -0.308658
v -0.480785 -0.500000 -0.304910
v 0.304910 0.480785 -0.500000
v 0.117317 0.423880 -0.500000
v -0.055570 0.331470 -0.500000
v -0.207107 0.207107 -0.500000
v -0.331469 0.055570 -0.500000
v -0.423879 -0.117317 -0.500000
v -0.480785 -0.304910 -0.500000
v -0.500000 -0.500000 -0.500000
vt 0.0000 0.0000
vt 1.0000 1.0000
vt 0.0000 1.0000
vt 1.0000 0.0000
vt 0.0000 1.0000
vt 0.0000 0.0000
vt 0.0000 0.0000
vt 1.0000 1.0000
vt 0.0000 1.0000
vt 1.0000 0.0000
vt 0.0000 1.0000
vt 0.0000 0.0000
vt 0.0000 0.0000
vt 1.0000 0.0000
vt 1.0000 1.0000
vt 1.0000 0.0000
vt 0.0000 1.0000
vt 0.0000 0.0000
vt 1.0000 0.0000
vt 0.0000 1.0000
vt 0.0000 0.0000
vt 0.0000 0.0000
vt 1.0000 1.0000
vt 0.0000 1.0000
vt 0.0000 0.0000
vt 1.0000 1.0000
vt 1.0000 0.0000
vt 0.0000 1.0000
vt 0.0000 0.0000
vt 1.0000 0.0000
vt 0.0000 1.0000
vt 0.0000 0.0000
vt 0.0000 0.0000
vt 1.0000 1.0000
vt 0.0000 1.0000
vt 0.0000 0.0000
vt 1.0000 1.0000
vt 0.0000 1.0000
vt 1.0000 0.0000
vt 0.0000 1.0000
vt 0.0000 0.0000
vt 0.0000 0.0000
vt 1.0000 1.0000
vt 0.0000 1.0000
vt 0.0000 0.0000
vt 1.0000 1.0000
vt 0.0000 1.0000
vt 0.0000 0.0000
vt 1.0000 1.0000
vt 0.0000 1.0000
vt 1.0000 0.0000
vt 0.0000 1.0000
vt 0.0000 0.0000
vt 0.0000 0.0000
vt 1.0000 1.0000
vt 0.0000 1.0000
vt 0.0000 0.0000
vt 1.0000 1.0000
vt 0.0000 1.0000
vt 0.0000 0.0000
vt 1.0000 1.0000
vt 1.0000 0.0000
vt 0.0000 1.0000
vt 0.0000 0.0000
vt 1.0000 0.0000
vt 0.0000 1.0000
vt 0.0000 0.0000
vt 0.0000 0.0000
vt 1.0000 1.0000
vt 0.0000 1.0000
vt 1.0000 0.0000
vt 0.0000 1.0000
vt 0.0000 0.0000
vt 1.0000 0.0000
vt 0.0000 1.0000
vt 0.0000 0.0000
vt 0.0000 0.0000
vt 1.0000 1.0000
vt 0.0000 1.0000
vt 0.0000 0.0000
vt 1.0000 1.0000
vt 0.0000 1.0000
vt 1.0000 0.0000
vt 0.0000 1.0000
vt 0.0000 0.0000
vt 0.0000 0.0000
vt 1.0000 1.0000
vt 0.0000 1.0000
vt 0.0000 0.0000
vt 1.0000 1.0000
vt 0.0000 1.0000
vt 0.0000 0.0000
vt 1.0000 1.0000
vt 1.0000 0.0000
vt 0.0000 1.0000
vt 0.0000 0.0000
vt 0.0000 0.0000
vt 1.0000 1.0000
vt 0.0000 1.0000
vt 1.0000 0.0000
vt 0.0000 1.0000
vt 0.0000 0.0000
vt 0.0000 0.0000
vt 1.0000 1.0000
vt 1.0000 0.0000
vt 0.0000 1.0000
vt 0.0000 0.0000
vt 1.0000 0.0000
vt 0.0000 1.0000
vt 0.0000 0.0000
vt 0.0000 0.0000
vt 1.0000 1.0000
vt 0.0000 1.0000
vt 0.0000 0.0000
vt 1.0000 1.0000
vt 0.0000 1.0000
vt 1.0000 0.0000
vt 0.0000 1.0000
vt 0.0000 0.0000
vt 0.0000 0.0000
vt 1.0000 1.0000
vt 0.0000 1.0000
vt 0.0000 0.0000
vt 1.0000 1.0000
vt 0.0000 1.0000
vt 1.0000 0.0000
vt 0.0000 1.0000
vt 0.0000 0.0000
vt 0.0000 0.0000
vt 1.0000 1.0000
vt 0.0000 1.0000
vt 1.0000 0.0000
vt 0.0000 1.0000
vt 0.0000 0.0000
vt 0.0000 0.0000
vt 1.0000 1.0000
vt 0.0000 0.0000
vt 0.0000 1.0000
vt 0.0000 0.0000
vt 1.0000 1.0000
vt 0.0000 1.0000
vt 1.0000 0.0000
vt 0.0000 1.0000
vt 0.0000 0.0000
vt 0.0000 0.0000
vt 1.0000 1.0000
vt 1.0000 0.0000
vt 0.0000 1.0000
vt 0.0000 0.0000
vt 1.0000 0.0000
vt 0.0000 1.0000
vt 0.0000 0.0000
vt 0.0000 0.0000
vt 1.0000 1.0000
vt 0.0000 1.0000
vt 0.0000 0.0000
vt 1.0000 1.0000
vt 0.0000 1.0000
vt 1.0000 0.0000
vt 0.0000 1.0000
vt 0.0000 0.0000
vt 1.0000 0.0000
vt 0.0000 1.0000
vt 0.0000 0.0000
vt 0.0000 0.0000
vt 1.0000 1.0000
vt 0.0000 1.0000
vt 1.0000 0.0000
vt 0.0000 1.0000
vt 0.0000 0.0000
vt 1.0000 0.0000
vt 0.0000 1.0000
vt 0.0000 0.0000
vt 0.0000 0.0000
vt 1.0000 1.0000
vt 0.0000 1.0000
vt 1.0000 0.0000
vt 0.0000 1.0000
vt 0.0000 0.0000
vt 0.0000 0.0000
vt 1.0000 1.0000
vt 1.0000 0.0000
vt 0.0000 1.0000
vt 0.0000 0.0000
vt 0.9755 0.3455
vt 0.0245 0.6545
vt 0.9755 0.6545
vt 0.9755 0.3455
vt 0.9755 0.6545
vt 0.2061 0.0955
vt 0.0245 0.3455
vt 0.9755 0.6545
vt 1.0000 0.0000
vt 1.0000 1.0000
vt 1.0000 0.0000
vt 1.0000 1.0000
vt 1.0000 1.0000
vt 1.0000 0.0000
vt 1.0000 1.0000
vt 1.0000 0.0000
vt 1.0000 0.0000
vt 1.0000 1.0000
vt 1.0000 0.0000
vt 1.0000 0.0000
vt 1.0000 0.0000
vt 1.0000 1.0000
vt 1.0000 0.0000
vt 1.0000 0.0000
vt 1.0000 1.0000
vt 1.0000 0.0000
vt 1.0000 1.0000
vt 1.0000 0.0000
vt 1.0000 0.0000
vt 1.0000 1.0000
vt 1.0000 0.0000
vt 1.0000 0.0000
vt 1.0000 1.0000
vt 1.0000 0.0000
vt 1.0000 1.0000
vt 1.0000 1.0000
vt 1.0000 0.0000
vt 1.0000 0.0000
vt 1.0000 1.0000
vt 1.0000 0.0000
vt 1.0000 0.0000
vt 1.0000 1.0000
vt 1.0000 0.0000
vt 1.0000 1.0000
vt 1.0000 0.0000
vt 1.0000 0.0000
vt 1.0000 1.0000
vt 1.0000 1.0000
vt 1.0000 0.0000
vt 1.0000 0.0000
vt 1.0000 1.0000
vt 1.0000 1.0000
vt 1.0000 0.0000
vt 1.0000 1.0000
vt 1.0000 1.0000
vt 1.0000 0.0000
vt 1.0000 1.0000
vt 0.2061 0.9045
vt 0.5000 1.0000
vt 0.7939 0.9045
vt 0.7939 0.0955
vt 0.5000 0.0000
vt 0.2061 0.0955
vt 0.0245 0.3455
vt 0.2061 0.9045
vt 0.5000 1.0000
vt 0.7939 0.9045
vt 0.7939 0.0955
vt 0.5000 0.0000
vt 0.2061 0.0955
vt 0.0245 0.3455
vt 0.2061 0.9045
vt 0.5000 1.0000
vt 0.7939 0.9045
vt 0.9755 0.3455
vt 0.7939 0.0955
vt 0.5000 0.0000
vt 0.0245 0.6545
vn -0.0759 0.6326 0.7708
vn -0.0865 0.4696 0.8786
vn -0.0938 0.2890 0.9527
vn -0.0975 0.0976 0.9904
vn -0.0097 0.9951 0.0980
vn -0.0286 0.9565 0.2902
vn -0.0464 0.8810 0.4709
vn -0.0624 0.7715 0.6332
vn -0.0286 0.9951 0.0942
vn -0.0846 0.9565 0.2790
vn -0.1374 0.8810 0.4528
vn -0.1847 0.7715 0.6088
vn -0.2248 0.6326 0.7412
vn -0.2563 0.4696 0.8448
vn -0.2779 0.2890 0.9161
vn -0.2889 0.0976 0.9524
vn -0.3651 0.6326 0.6831
vn -0.4162 0.4696 0.7786
vn -0.4513 0.2890 0.8443
vn -0.4691 0.0976 0.8777
vn -0.0464 0.9951 0.0869
vn -0.1374 0.9565 0.2571
vn -0.2230 0.8810 0.4173
vn -0.2999 0.7715 0.5611
vn -0.1850 0.9565 0.2254
vn -0.3002 0.8810 0.3658
vn -0.4036 0.7715 0.4918
vn -0.4913 0.6326 0.5987
vn -0.5601 0.4696 0.6825
vn -0.6073 0.2890 0.7400
vn -0.6314 0.0976 0.7693
vn -0.0625 0.9951 0.0761
vn -0.6825 0.4696 0.5601
vn -0.7400 0.2890 0.6073
vn -0.7693 0.0976 0.6314
vn -0.0761 0.9951 0.0625
vn -0.2254 0.9565 0.1850
vn -0.3658 0.8810 0.3002
vn -0.4918 0.7715 0.4036
vn -0.5987 0.6326 0.4913
vn -0.4173 0.8810 0.2230
vn -0.5611 0.7715 0.2999
vn -0.6831 0.6326 0.3651
vn -0.7786 0.4696 0.4162
vn -0.8443 0.2890 0.4513
vn -0.8777 0.0976 0.4691
vn -0.0869 0.9951 0.0464
vn -0.2571 0.9565 0.1374
vn -0.9161 0.2890 0.2779
vn -0.9524 0.0976 0.2889
vn -0.0942 0.9951 0.0286
vn -0.2790 0.9565 0.0846
vn -0.4528 0.8810 0.1374
vn -0.6088 0.7715 0.1847
vn -0.7412 0.6326 0.2248
vn -0.8448 0.4696 0.2563
vn -0.4709 0.8810 0.0464
vn -0.6332 0.7715 0.0624
vn -0.7708 0.6326 0.0759
vn -0.8786 0.4696 0.0865
vn -0.9527 0.2890 0.0938
vn -0.9904 0.0976 0.0975
vn -0.0980 0.9951 0.0097
vn -0.2902 0.9565 0.0286
vn -0.0000 -1.0000 0.0000
vn 1.0000 0.0000 0.0000
vn 0.0000 0.0000 -1.0000
vn -0.4173 0.8810 0.2231
usemtl None
s off
f 6/1/1 13/2/1 14/3/1
f 6/4/2 15/5/2 7/6/2
f 8/7/3 15/8/3 16/9/3
f 8/10/4 17/11/4 9/12/4
f 2/13/5 26/14/5 10/15/5
f 2/16/6 11/17/6 3/18/6
f 3/19/7 12/20/7 4/21/7
f 5/22/8 12/23/8 13/24/8
f 10/25/9 26/14/9 18/26/9
f 10/27/10 19/28/10 11/29/10
f 11/30/11 20/31/11 12/32/11
f 13/33/12 20/34/12 21/35/12
f 14/36/13 21/37/13 22/38/13
f 14/39/14 23/40/14 15/41/14
f 16/42/15 23/43/15 24/44/15
f 17/45/16 24/46/16 25/47/16
f 22/48/17 30/49/17 31/50/17
f 22/51/18 32/52/18 23/53/18
f 24/54/19 32/55/19 33/56/19
f 25/57/20 33/58/20 34/59/20
f 18/60/21 26/14/21 27/61/21
f 18/62/22 28/63/22 19/64/22
f 19/65/23 29/66/23 20/67/23
f 21/68/24 29/69/24 30/70/24
f 27/71/25 36/72/25 28/73/25
f 28/74/26 37/75/26 29/76/26
f 30/77/27 37/78/27 38/79/27
f 31/80/28 38/81/28 39/82/28
f 31/83/29 40/84/29 32/85/29
f 33/86/30 40/87/30 41/88/30
f 34/89/31 41/90/31 42/91/31
f 27/92/32 26/14/32 35/93/32
f 39/94/33 48/95/33 40/96/33
f 41/97/34 48/98/34 49/99/34
f 41/100/35 50/101/35 42/102/35
f 35/103/36 26/14/36 43/104/36
f 35/105/37 44/106/37 36/107/37
f 36/108/38 45/109/38 37/110/38
f 38/111/39 45/112/39 46/113/39
f 39/114/40 46/115/40 47/116/40
f 44/117/41 53/118/41 45/119/41
f 46/120/42 53/121/42 54/122/42
f 47/123/43 54/124/43 55/125/43
f 47/126/44 56/127/44 48/128/44
f 49/129/45 56/130/45 57/131/45
f 49/132/46 58/133/46 50/134/46
f 43/135/47 26/14/47 51/136/47
f 44/137/48 51/136/48 52/138/48
f 57/139/49 64/140/49 65/141/49
f 57/142/50 66/143/50 58/144/50
f 51/145/51 26/14/51 59/146/51
f 51/147/52 60/148/52 52/149/52
f 52/150/53 61/151/53 53/152/53
f 54/153/54 61/154/54 62/155/54
f 55/156/55 62/157/55 63/158/55
f 55/159/56 64/160/56 56/161/56
f 60/162/57 69/163/57 61/164/57
f 62/165/58 69/166/58 70/167/58
f 62/168/59 71/169/59 63/170/59
f 63/171/60 72/172/60 64/173/60
f 65/174/61 72/175/61 73/176/61
f 65/177/62 74/178/62 66/179/62
f 59/180/63 26/14/63 67/181/63
f 59/182/64 68/183/64 60/184/64
f 42/185/65 1/186/65 34/187/65
f 5/188/66 1/186/66 4/189/66
f 71/190/67 70/191/67 1/192/67
f 6/1/1 5/193/1 13/2/1
f 6/4/2 14/194/2 15/5/2
f 8/7/3 7/195/3 15/8/3
f 8/10/4 16/196/4 17/11/4
f 2/16/6 10/15/6 11/17/6
f 3/19/7 11/197/7 12/20/7
f 5/22/8 4/198/8 12/23/8
f 10/27/10 18/26/10 19/28/10
f 11/30/11 19/199/11 20/31/11
f 13/33/12 12/200/12 20/34/12
f 14/36/13 13/201/13 21/37/13
f 14/39/14 22/202/14 23/40/14
f 16/42/15 15/203/15 23/43/15
f 17/45/16 16/204/16 24/46/16
f 22/48/17 21/205/17 30/49/17
f 22/51/18 31/206/18 32/52/18
f 24/54/19 23/207/19 32/55/19
f 25/57/20 24/208/20 33/58/20
f 18/62/22 27/61/22 28/63/22
f 19/65/23 28/209/23 29/66/23
f 21/68/24 20/210/24 29/69/24
f 27/71/25 35/93/25 36/72/25
f 28/74/26 36/211/26 37/75/26
f 30/77/27 29/212/27 37/78/27
f 31/80/28 30/213/28 38/81/28
f 31/83/29 39/214/29 40/84/29
f 33/86/30 32/215/30 40/87/30
f 34/89/31 33/216/31 41/90/31
f 39/94/33 47/217/33 48/95/33
f 41/97/34 40/218/34 48/98/34
f 41/100/35 49/219/35 50/101/35
f 35/105/37 43/104/37 44/106/37
f 36/108/38 44/220/38 45/109/38
f 38/111/39 37/221/39 45/112/39
f 39/114/40 38/222/40 46/115/40
f 44/117/68 52/223/68 53/118/68
f 46/120/42 45/224/42 53/121/42
f 47/123/43 46/225/43 54/124/43
f 47/126/44 55/226/44 56/127/44
f 49/129/45 48/227/45 56/130/45
f 49/132/46 57/228/46 58/133/46
f 44/137/48 43/229/48 51/136/48
f 57/139/49 56/230/49 64/140/49
f 57/142/50 65/231/50 66/143/50
f 51/147/52 59/146/52 60/148/52
f 52/150/53 60/232/53 61/151/53
f 54/153/54 53/233/54 61/154/54
f 55/156/55 54/234/55 62/157/55
f 55/159/56 63/235/56 64/160/56
f 60/162/57 68/236/57 69/163/57
f 62/165/58 61/237/58 69/166/58
f 62/168/59 70/238/59 71/169/59
f 63/171/60 71/239/60 72/172/60
f 65/174/61 64/240/61 72/175/61
f 65/177/62 73/241/62 74/178/62
f 59/182/64 67/181/64 68/183/64
f 9/242/65 17/243/65 1/186/65
f 25/244/65 34/187/65 1/186/65
f 42/185/65 50/245/65 1/186/65
f 58/246/65 66/247/65 1/186/65
f 74/248/65 1/186/65 66/247/65
f 17/243/65 25/244/65 1/186/65
f 50/245/65 58/246/65 1/186/65
f 26/249/66 2/250/66 1/186/66
f 3/251/66 4/189/66 1/186/66
f 5/188/66 6/252/66 1/186/66
f 7/253/66 8/254/66 1/186/66
f 9/255/66 1/186/66 8/254/66
f 2/250/66 3/251/66 1/186/66
f 6/252/66 7/253/66 1/186/66
f 68/256/67 67/257/67 1/192/67
f 26/258/67 1/192/67 67/257/67
f 74/259/67 73/260/67 1/192/67
f 72/261/67 71/190/67 1/192/67
f 70/191/67 69/262/67 1/192/67
f 68/256/67 1/192/67 69/262/67
f 73/260/67 72/261/67 1/192/67
