# Blender v2.78 (sub 0) OBJ File: 'ChickenCoop.blend'
# www.blender.org
mtllib ChickenCoop.mtl
o Cube.004_Cube.010
v -0.200000 -0.280507 -0.469675
v -0.200000 0.219493 -0.469675
v 0.200000 -0.280507 -0.469675
v 0.200000 0.219493 -0.469675
v 0.225000 -0.607447 -0.225000
v 0.225000 -0.335358 -0.225000
v 0.225000 -0.607447 -0.375000
v 0.225000 -0.335358 -0.375000
v 0.375000 -0.607447 -0.225000
v 0.375000 -0.335358 -0.225000
v 0.375000 -0.607447 -0.375000
v 0.375000 -0.335358 -0.375000
v 0.225000 -0.607447 0.375000
v 0.225000 -0.335358 0.375000
v 0.225000 -0.607447 0.225000
v 0.225000 -0.335358 0.225000
v 0.375000 -0.607447 0.375000
v 0.375000 -0.335358 0.375000
v 0.375000 -0.607447 0.225000
v 0.375000 -0.335358 0.225000
v -0.375000 -0.607447 -0.225000
v -0.375000 -0.356018 -0.225000
v -0.375000 -0.607447 -0.375000
v -0.375000 -0.335358 -0.375000
v -0.225000 -0.607447 -0.225000
v -0.225000 -0.335358 -0.225000
v -0.225000 -0.607447 -0.375000
v -0.225000 -0.335358 -0.375000
v -0.375000 -0.607447 0.375000
v -0.375000 -0.335358 0.375000
v -0.375000 -0.607447 0.225000
v -0.375000 -0.335358 0.225000
v -0.225000 -0.607447 0.375000
v -0.225000 -0.335358 0.375000
v -0.225000 -0.607447 0.225000
v -0.225000 -0.335358 0.225000
v -0.500000 -0.335358 0.500000
v -0.500000 0.213331 0.500000
v -0.500000 -0.335358 -0.500000
v -0.500000 0.464642 -0.500000
v 0.500000 -0.335358 0.500000
v 0.500000 0.213331 0.500000
v 0.500000 -0.335358 -0.500000
v 0.500000 0.464642 -0.500000
v -0.200000 0.219493 -0.500000
v -0.200000 -0.280507 -0.500000
v 0.200000 -0.280507 -0.500000
v 0.200000 0.219493 -0.500000
vn 1.0000 0.0000 -0.0000
vn 0.0000 0.0000 -1.0000
vn -1.0000 0.0000 0.0000
vn 0.0000 0.0000 1.0000
vn 0.0000 -1.0000 0.0000
vn 0.0069 -1.0000 -0.0069
vn 0.0000 0.9698 0.2437
vn -0.0052 -1.0000 0.0052
vn 0.0000 1.0000 0.0000
usemtl None
s off
f 1//1 46//1 45//1 2//1
f 3//2 1//2 2//2 4//2
f 5//3 6//3 8//3 7//3
f 7//2 8//2 12//2 11//2
f 11//1 12//1 10//1 9//1
f 9//4 10//4 6//4 5//4
f 7//5 11//5 9//5 5//5
f 13//3 14//3 16//3 15//3
f 15//2 16//2 20//2 19//2
f 19//1 20//1 18//1 17//1
f 17//4 18//4 14//4 13//4
f 15//5 19//5 17//5 13//5
f 21//3 22//3 24//3 23//3
f 23//2 24//2 28//2 27//2
f 27//1 28//1 26//1 25//1
f 25//4 26//4 22//4 21//4
f 23//5 27//5 25//5 21//5
f 29//3 30//3 32//3 31//3
f 31//2 32//2 36//2 35//2
f 35//1 36//1 34//1 33//1
f 33//4 34//4 30//4 29//4
f 31//5 35//5 33//5 29//5
f 37//3 38//3 40//3 39//3
f 39//2 46//2 47//2 48//2 44//2 43//2
f 43//1 44//1 42//1 41//1
f 41//4 42//4 38//4 37//4
f 39//6 43//6 12//6 8//6 6//6 26//6 28//6 24//6 22//6
f 44//7 40//7 38//7 42//7
f 26//8 6//8 10//8 12//8 43//8 41//8 18//8 20//8 16//8 36//8 32//8 30//8 37//8 39//8 22//8
f 37//5 30//5 34//5 36//5 16//5 14//5 18//5 41//5
f 47//3 3//3 4//3 48//3
f 44//2 48//2 45//2 46//2 39//2 40//2
f 46//9 1//9 3//9 47//9
f 48//5 4//5 2//5 45//5
