# Blender v2.78 (sub 0) OBJ File: 'RoundCorner.blend'
# www.blender.org
mtllib curvex+.mtl
o Cylinder
v -0.500000 -0.500000 -0.500000
v -0.500000 0.500000 -0.500000
v -0.500000 -0.500000 0.500000
v -0.500000 0.500000 0.500000
v 0.500000 -0.500000 -0.499999
v 0.500000 0.500000 -0.499999
v 0.480785 -0.500000 -0.304909
v 0.480785 0.500000 -0.304909
v 0.423879 -0.500000 -0.117316
v 0.423879 0.500000 -0.117316
v 0.331469 -0.500000 0.055571
v 0.331469 0.500000 0.055571
v 0.207106 -0.500000 0.207108
v 0.207106 0.500000 0.207108
v 0.055569 -0.500000 0.331470
v 0.055569 0.500000 0.331470
v -0.117318 -0.500000 0.423880
v -0.117318 0.500000 0.423880
v -0.304911 -0.500000 0.480786
v -0.304911 0.500000 0.480786
vt 0.0000 0.0000
vt 0.0000 0.0000
vt 0.0000 0.0000
vt 0.0000 0.0000
vt 0.0000 0.0000
vt 0.0000 0.0000
vt 0.0000 0.0000
vt 0.0000 0.0000
vt 0.0000 0.0000
vt 0.0000 0.0000
vt 0.0000 0.0000
vt 0.0000 0.0000
vt 0.0000 0.0000
vt 0.0000 0.0000
vt 0.0000 0.0000
vt 0.0000 0.0000
vt 0.0000 0.0000
vt 0.0000 0.0000
vt 0.0000 0.0000
vt 0.0000 0.0000
vt 0.2061 0.0955
vt 0.0245 0.3455
vt 0.2061 0.9045
vt 0.5000 1.0000
vt 0.7939 0.9045
vt 0.9755 0.6545
vt 0.9755 0.3455
vt 0.7939 0.0955
vt 0.5000 0.0000
vt 0.0245 0.6545
vn 0.9952 0.0000 0.0980
vn 0.9569 0.0000 0.2903
vn 0.8819 0.0000 0.4714
vn 0.7730 0.0000 0.6344
vn 0.6344 0.0000 0.7730
vn 0.4714 0.0000 0.8819
vn 0.2903 0.0000 0.9569
vn 0.0980 0.0000 0.9952
vn 0.0000 0.0000 -1.0000
vn -1.0000 0.0000 0.0000
vn 0.0000 1.0000 0.0000
vn 0.0000 -1.0000 0.0000
usemtl None
s off
f 6/1/1 7/2/1 5/3/1
f 8/4/2 9/5/2 7/2/2
f 10/6/3 11/7/3 9/5/3
f 12/8/4 13/9/4 11/7/4
f 14/10/5 15/11/5 13/9/5
f 16/12/6 17/13/6 15/11/6
f 18/14/7 19/15/7 17/13/7
f 20/16/8 3/17/8 19/15/8
f 2/18/9 5/3/9 1/19/9
f 1/19/10 4/20/10 2/18/10
f 16/12/11 14/10/11 2/18/11
f 17/21/12 19/22/12 1/23/12
f 6/1/1 8/4/1 7/2/1
f 8/4/2 10/6/2 9/5/2
f 10/6/3 12/8/3 11/7/3
f 12/8/4 14/10/4 13/9/4
f 14/10/5 16/12/5 15/11/5
f 16/12/6 18/14/6 17/13/6
f 18/14/7 20/16/7 19/15/7
f 20/16/8 4/20/8 3/17/8
f 2/18/9 6/1/9 5/3/9
f 1/19/10 3/17/10 4/20/10
f 10/6/11 8/4/11 2/18/11
f 6/1/11 2/18/11 8/4/11
f 4/20/11 20/16/11 2/18/11
f 18/14/11 16/12/11 2/18/11
f 14/10/11 12/8/11 2/18/11
f 10/6/11 2/18/11 12/8/11
f 20/16/11 18/14/11 2/18/11
f 1/23/12 5/24/12 7/25/12
f 7/25/12 9/26/12 1/23/12
f 11/27/12 13/28/12 1/23/12
f 15/29/12 17/21/12 1/23/12
f 19/22/12 3/30/12 1/23/12
f 1/23/12 9/26/12 11/27/12
f 13/28/12 15/29/12 1/23/12
