# Blender v2.78 (sub 0) OBJ File: 'fourstepstairs.blend'
# www.blender.org
mtllib fourstepstairs.mtl
o Plane.004_4_Stairs
v -0.500000 0.500000 0.500000
v -0.500000 -0.500000 0.500000
v -0.500000 0.500000 -0.500000
v -0.500000 -0.500000 -0.500000
v 0.500000 -0.500000 0.500000
v 0.500000 -0.500000 -0.500000
v 0.250000 -0.250000 0.500000
v 0.500000 -0.250000 0.500000
v 0.250000 -0.250000 -0.500000
v 0.500000 -0.250000 -0.500000
v -0.000000 0.000000 0.500000
v 0.250000 0.000000 0.500000
v -0.000000 0.000000 -0.500000
v 0.250000 0.000000 -0.500000
v -0.250000 0.250000 0.500000
v 0.000000 0.250000 0.500000
v -0.250000 0.250000 -0.500000
v 0.000000 0.250000 -0.500000
v -0.250000 0.500000 0.500000
v -0.250000 0.500000 -0.500000
vt 1.0000 0.0000
vt 0.0000 1.0000
vt 0.0000 0.0000
vt 1.0000 0.0000
vt 0.0000 1.0000
vt 0.0000 0.0000
vt 1.0000 0.0000
vt 0.0000 1.0000
vt 0.0000 0.0000
vt 1.0000 0.0000
vt 0.0000 1.0000
vt 0.0000 0.0000
vt 1.0000 0.0000
vt 0.0000 1.0000
vt 0.0000 0.0000
vt 1.0000 0.0000
vt 0.0000 1.0000
vt 0.0000 0.0000
vt 1.0000 0.0000
vt 0.0000 1.0000
vt 0.0000 0.0000
vt 1.0000 0.0000
vt 0.0000 1.0000
vt 0.0000 0.0000
vt 1.0000 0.0000
vt 1.0000 0.0000
vt 0.0000 1.0000
vt 0.0000 0.0000
vt 0.5000 0.0000
vt 0.0245 0.3455
vt 0.9755 0.6545
vt 0.5000 1.0000
vt 0.9755 0.6545
vt 0.5000 0.0000
vt 1.0000 1.0000
vt 1.0000 1.0000
vt 1.0000 1.0000
vt 1.0000 1.0000
vt 1.0000 1.0000
vt 1.0000 1.0000
vt 1.0000 1.0000
vt 1.0000 1.0000
vt 1.0000 1.0000
vt 0.2061 0.9045
vt 0.5000 1.0000
vt 0.7939 0.9045
vt 0.9755 0.3455
vt 0.7939 0.0955
vt 0.2061 0.0955
vt 0.0245 0.6545
vt 0.7939 0.9045
vt 0.9755 0.3455
vt 0.7939 0.0955
vt 0.2061 0.0955
vt 0.0245 0.6545
vt 0.2061 0.9045
vt 0.0245 0.3455
vn 1.0000 0.0000 0.0000
vn -0.0000 -1.0000 0.0000
vn 0.0000 1.0000 0.0000
vn 0.0000 0.0000 1.0000
vn 0.0000 0.0000 -1.0000
usemtl None
s off
f 2/1/1 3/2/1 1/3/1
f 4/4/2 5/5/2 2/6/2
f 8/7/3 9/8/3 7/9/3
f 5/10/1 10/11/1 8/12/1
f 12/13/3 13/14/3 11/15/3
f 7/16/1 14/17/1 12/18/1
f 16/19/3 17/20/3 15/21/3
f 11/22/1 18/23/1 16/24/1
f 19/25/3 3/2/3 1/3/3
f 15/26/1 20/27/1 19/28/1
f 7/29/4 11/30/4 2/31/4
f 13/32/5 9/33/5 4/34/5
f 2/1/1 4/35/1 3/2/1
f 4/4/2 6/36/2 5/5/2
f 8/7/3 10/37/3 9/8/3
f 5/10/1 6/36/1 10/11/1
f 12/13/3 14/38/3 13/14/3
f 7/16/1 9/39/1 14/17/1
f 16/19/3 18/40/3 17/20/3
f 11/22/1 13/41/1 18/23/1
f 19/25/3 20/42/3 3/2/3
f 15/26/1 17/43/1 20/27/1
f 15/44/4 19/45/4 1/46/4
f 1/46/4 2/31/4 15/44/4
f 5/47/4 8/48/4 7/29/4
f 7/29/4 12/49/4 11/30/4
f 11/30/4 16/50/4 15/44/4
f 15/44/4 2/31/4 11/30/4
f 5/47/4 7/29/4 2/31/4
f 13/32/5 14/51/5 9/33/5
f 9/33/5 10/52/5 6/53/5
f 4/34/5 3/54/5 17/55/5
f 17/55/5 18/56/5 13/32/5
f 3/54/5 20/57/5 17/55/5
f 9/33/5 6/53/5 4/34/5
f 4/34/5 17/55/5 13/32/5
