# Blender v2.78 (sub 0) OBJ File: 'untitled.blend'
# www.blender.org
mtllib logtemperate.mtl
o Cylinder
v 0.000000 -0.500000 -0.500000
v 0.000000 0.500000 -0.500000
v 0.097545 -0.500000 -0.490393
v 0.097545 0.500000 -0.490393
v 0.191342 -0.500000 -0.461940
v 0.191342 0.500000 -0.461940
v 0.277785 -0.500000 -0.415735
v 0.277785 0.500000 -0.415735
v 0.353553 -0.500000 -0.353553
v 0.353553 0.500000 -0.353553
v 0.415735 -0.500000 -0.277785
v 0.415735 0.500000 -0.277785
v 0.461940 -0.500000 -0.191342
v 0.461940 0.500000 -0.191342
v 0.490393 -0.500000 -0.097545
v 0.490393 0.500000 -0.097545
v 0.500000 -0.500000 -0.000000
v 0.500000 0.500000 -0.000000
v 0.490393 -0.500000 0.097545
v 0.490393 0.500000 0.097545
v 0.461940 -0.500000 0.191342
v 0.461940 0.500000 0.191342
v 0.415735 -0.500000 0.277785
v 0.415735 0.500000 0.277785
v 0.353553 -0.500000 0.353553
v 0.353553 0.500000 0.353553
v 0.277785 -0.500000 0.415735
v 0.277785 0.500000 0.415735
v 0.191342 -0.500000 0.461940
v 0.191342 0.500000 0.461940
v 0.097545 -0.500000 0.490393
v 0.097545 0.500000 0.490393
v -0.000000 -0.500000 0.500000
v -0.000000 0.500000 0.500000
v -0.097545 -0.500000 0.490393
v -0.097545 0.500000 0.490393
v -0.191342 -0.500000 0.461940
v -0.191342 0.500000 0.461940
v -0.277785 -0.500000 0.415735
v -0.277785 0.500000 0.415735
v -0.353554 -0.500000 0.353553
v -0.353554 0.500000 0.353553
v -0.415735 -0.500000 0.277785
v -0.415735 0.500000 0.277785
v -0.461940 -0.500000 0.191341
v -0.461940 0.500000 0.191341
v -0.490393 -0.500000 0.097545
v -0.490393 0.500000 0.097545
v -0.500000 -0.500000 -0.000000
v -0.500000 0.500000 -0.000000
v -0.490393 -0.500000 -0.097546
v -0.490393 0.500000 -0.097546
v -0.461940 -0.500000 -0.191342
v -0.461940 0.500000 -0.191342
v -0.415734 -0.500000 -0.277786
v -0.415734 0.500000 -0.277786
v -0.353553 -0.500000 -0.353554
v -0.353553 0.500000 -0.353554
v -0.277785 -0.500000 -0.415735
v -0.277785 0.500000 -0.415735
v -0.191341 -0.500000 -0.461940
v -0.191341 0.500000 -0.461940
v -0.097544 -0.500000 -0.490393
v -0.097544 0.500000 -0.490393
vt 0.2501 0.3189
vt 0.2188 0.0001
vt 0.2501 0.0001
vt 0.2188 0.3189
vt 0.1876 0.0001
vt 0.1876 0.3189
vt 0.1563 0.0001
vt 0.1563 0.3189
vt 0.1251 0.0001
vt 0.1251 0.3189
vt 0.0938 0.0001
vt 0.0938 0.3189
vt 0.0626 0.0001
vt 0.0626 0.3189
vt 0.0314 0.0001
vt 0.0314 0.3189
vt 0.0001 0.0001
vt 0.9999 0.3189
vt 0.9686 0.0001
vt 0.9999 0.0001
vt 0.9686 0.3189
vt 0.9374 0.0001
vt 0.9374 0.3189
vt 0.9062 0.0001
vt 0.9061 0.3189
vt 0.8749 0.0001
vt 0.8749 0.3189
vt 0.8437 0.0001
vt 0.8437 0.3189
vt 0.8124 0.0001
vt 0.8124 0.3189
vt 0.7812 0.0001
vt 0.7812 0.3189
vt 0.7499 0.0001
vt 0.7499 0.3189
vt 0.7187 0.0001
vt 0.7187 0.3189
vt 0.6875 0.0001
vt 0.6875 0.3189
vt 0.6562 0.0001
vt 0.6562 0.3189
vt 0.6250 0.0001
vt 0.6250 0.3189
vt 0.5937 0.0001
vt 0.5937 0.3189
vt 0.5625 0.0001
vt 0.5625 0.3189
vt 0.5312 0.0001
vt 0.5312 0.3189
vt 0.5000 0.0001
vt 0.5000 0.3189
vt 0.4688 0.0001
vt 0.4688 0.3189
vt 0.4375 0.0001
vt 0.4375 0.3189
vt 0.4063 0.0001
vt 0.4063 0.3189
vt 0.3750 0.0001
vt 0.3750 0.3189
vt 0.3438 0.0001
vt 0.3438 0.3189
vt 0.3125 0.0001
vt 0.2782 0.6632
vt 0.3555 0.7575
vt 0.2493 0.9563
vt 0.3125 0.3189
vt 0.2813 0.0001
vt 0.2813 0.3189
vt 0.2493 0.9563
vt 0.0505 0.8500
vt 0.3555 0.7575
vt 0.0001 0.3189
vt 0.2186 0.9624
vt 0.1874 0.9624
vt 0.1568 0.9563
vt 0.1279 0.9443
vt 0.1019 0.9270
vt 0.0798 0.9049
vt 0.0625 0.8789
vt 0.0505 0.8500
vt 0.0444 0.8194
vt 0.0444 0.7881
vt 0.0505 0.7575
vt 0.0625 0.7286
vt 0.0798 0.7027
vt 0.1568 0.6513
vt 0.1019 0.6806
vt 0.1279 0.6632
vt 0.1874 0.6452
vt 0.2186 0.6452
vt 0.2493 0.6513
vt 0.3041 0.6806
vt 0.3262 0.7027
vt 0.3436 0.7286
vt 0.3616 0.7881
vt 0.3616 0.8194
vt 0.3555 0.8500
vt 0.3436 0.8789
vt 0.3262 0.9049
vt 0.3041 0.9270
vt 0.2782 0.9443
vt 0.1568 0.6513
vt 0.1874 0.6452
vt 0.2186 0.6452
vt 0.2493 0.6513
vt 0.2781 0.6632
vt 0.3041 0.6806
vt 0.3262 0.7027
vt 0.3436 0.7286
vt 0.3616 0.7881
vt 0.3616 0.8194
vt 0.3555 0.8500
vt 0.3436 0.8789
vt 0.3262 0.9049
vt 0.3041 0.9270
vt 0.2781 0.9443
vt 0.2186 0.9624
vt 0.1874 0.9624
vt 0.1568 0.9563
vt 0.1279 0.9443
vt 0.1019 0.9270
vt 0.0798 0.9049
vt 0.0625 0.8789
vt 0.0444 0.8194
vt 0.0444 0.7881
vt 0.0505 0.7575
vt 0.0625 0.7286
vt 0.0798 0.7027
vt 0.1019 0.6806
vt 0.1279 0.6632
vn 0.0980 0.0000 -0.9952
vn 0.2903 0.0000 -0.9569
vn 0.4714 0.0000 -0.8819
vn 0.6344 0.0000 -0.7730
vn 0.7730 0.0000 -0.6344
vn 0.8819 0.0000 -0.4714
vn 0.9569 0.0000 -0.2903
vn 0.9952 0.0000 -0.0980
vn 0.9952 0.0000 0.0980
vn 0.9569 0.0000 0.2903
vn 0.8819 0.0000 0.4714
vn 0.7730 0.0000 0.6344
vn 0.6344 0.0000 0.7730
vn 0.4714 0.0000 0.8819
vn 0.2903 0.0000 0.9569
vn 0.0980 0.0000 0.9952
vn -0.0980 0.0000 0.9952
vn -0.2903 0.0000 0.9569
vn -0.4714 0.0000 0.8819
vn -0.6344 0.0000 0.7730
vn -0.7730 0.0000 0.6344
vn -0.8819 0.0000 0.4714
vn -0.9569 0.0000 0.2903
vn -0.9952 0.0000 0.0980
vn -0.9952 0.0000 -0.0980
vn -0.9569 0.0000 -0.2903
vn -0.8819 0.0000 -0.4714
vn -0.7730 0.0000 -0.6344
vn -0.6344 0.0000 -0.7730
vn -0.4714 0.0000 -0.8819
vn 0.0000 1.0000 0.0000
vn -0.2903 0.0000 -0.9569
vn -0.0980 0.0000 -0.9952
vn 0.0000 -1.0000 0.0000
usemtl Material.001
s off
f 2/1/1 3/2/1 1/3/1
f 4/4/2 5/5/2 3/2/2
f 6/6/3 7/7/3 5/5/3
f 8/8/4 9/9/4 7/7/4
f 10/10/5 11/11/5 9/9/5
f 12/12/6 13/13/6 11/11/6
f 14/14/7 15/15/7 13/13/7
f 16/16/8 17/17/8 15/15/8
f 18/18/9 19/19/9 17/20/9
f 20/21/10 21/22/10 19/19/10
f 22/23/11 23/24/11 21/22/11
f 24/25/12 25/26/12 23/24/12
f 26/27/13 27/28/13 25/26/13
f 28/29/14 29/30/14 27/28/14
f 30/31/15 31/32/15 29/30/15
f 32/33/16 33/34/16 31/32/16
f 34/35/17 35/36/17 33/34/17
f 36/37/18 37/38/18 35/36/18
f 38/39/19 39/40/19 37/38/19
f 40/41/20 41/42/20 39/40/20
f 42/43/21 43/44/21 41/42/21
f 44/45/22 45/46/22 43/44/22
f 46/47/23 47/48/23 45/46/23
f 48/49/24 49/50/24 47/48/24
f 50/51/25 51/52/25 49/50/25
f 52/53/26 53/54/26 51/52/26
f 54/55/27 55/56/27 53/54/27
f 56/57/28 57/58/28 55/56/28
f 58/59/29 59/60/29 57/58/29
f 60/61/30 61/62/30 59/60/30
f 30/63/31 22/64/31 6/65/31
f 62/66/32 63/67/32 61/62/32
f 64/68/33 1/3/33 63/67/33
f 31/69/34 47/70/34 15/71/34
f 2/1/1 4/4/1 3/2/1
f 4/4/2 6/6/2 5/5/2
f 6/6/3 8/8/3 7/7/3
f 8/8/4 10/10/4 9/9/4
f 10/10/5 12/12/5 11/11/5
f 12/12/6 14/14/6 13/13/6
f 14/14/7 16/16/7 15/15/7
f 16/16/8 18/72/8 17/17/8
f 18/18/9 20/21/9 19/19/9
f 20/21/10 22/23/10 21/22/10
f 22/23/11 24/25/11 23/24/11
f 24/25/12 26/27/12 25/26/12
f 26/27/13 28/29/13 27/28/13
f 28/29/14 30/31/14 29/30/14
f 30/31/15 32/33/15 31/32/15
f 32/33/16 34/35/16 33/34/16
f 34/35/17 36/37/17 35/36/17
f 36/37/18 38/39/18 37/38/18
f 38/39/19 40/41/19 39/40/19
f 40/41/20 42/43/20 41/42/20
f 42/43/21 44/45/21 43/44/21
f 44/45/22 46/47/22 45/46/22
f 46/47/23 48/49/23 47/48/23
f 48/49/24 50/51/24 49/50/24
f 50/51/25 52/53/25 51/52/25
f 52/53/26 54/55/26 53/54/26
f 54/55/27 56/57/27 55/56/27
f 56/57/28 58/59/28 57/58/28
f 58/59/29 60/61/29 59/60/29
f 60/61/30 62/66/30 61/62/30
f 6/65/31 4/73/31 2/74/31
f 2/74/31 64/75/31 6/65/31
f 62/76/31 60/77/31 58/78/31
f 58/78/31 56/79/31 54/80/31
f 54/80/31 52/81/31 50/82/31
f 50/82/31 48/83/31 54/80/31
f 46/84/31 44/85/31 38/86/31
f 42/87/31 40/88/31 38/86/31
f 38/86/31 36/89/31 34/90/31
f 34/90/31 32/91/31 38/86/31
f 30/63/31 28/92/31 26/93/31
f 26/93/31 24/94/31 22/64/31
f 22/64/31 20/95/31 18/96/31
f 18/96/31 16/97/31 14/98/31
f 14/98/31 12/99/31 10/100/31
f 10/100/31 8/101/31 6/65/31
f 6/65/31 64/75/31 62/76/31
f 62/76/31 58/78/31 6/65/31
f 54/80/31 48/83/31 46/84/31
f 44/85/31 42/87/31 38/86/31
f 38/86/31 32/91/31 30/63/31
f 30/63/31 26/93/31 22/64/31
f 22/64/31 18/96/31 14/98/31
f 14/98/31 10/100/31 22/64/31
f 6/65/31 58/78/31 54/80/31
f 54/80/31 46/84/31 38/86/31
f 38/86/31 30/63/31 6/65/31
f 22/64/31 10/100/31 6/65/31
f 6/65/31 54/80/31 38/86/31
f 62/66/32 64/68/32 63/67/32
f 64/68/33 2/1/33 1/3/33
f 63/102/34 1/103/34 3/104/34
f 3/104/34 5/105/34 7/106/34
f 7/106/34 9/107/34 11/108/34
f 11/108/34 13/109/34 7/106/34
f 15/71/34 17/110/34 19/111/34
f 19/111/34 21/112/34 15/71/34
f 23/113/34 25/114/34 31/69/34
f 27/115/34 29/116/34 31/69/34
f 31/69/34 33/117/34 35/118/34
f 35/118/34 37/119/34 31/69/34
f 39/120/34 41/121/34 43/122/34
f 43/122/34 45/123/34 47/70/34
f 47/70/34 49/124/34 51/125/34
f 51/125/34 53/126/34 55/127/34
f 55/127/34 57/128/34 63/102/34
f 59/129/34 61/130/34 63/102/34
f 63/102/34 3/104/34 15/71/34
f 7/106/34 13/109/34 15/71/34
f 15/71/34 21/112/34 23/113/34
f 25/114/34 27/115/34 31/69/34
f 31/69/34 37/119/34 39/120/34
f 39/120/34 43/122/34 47/70/34
f 47/70/34 51/125/34 63/102/34
f 57/128/34 59/129/34 63/102/34
f 3/104/34 7/106/34 15/71/34
f 15/71/34 23/113/34 31/69/34
f 31/69/34 39/120/34 47/70/34
f 51/125/34 55/127/34 63/102/34
f 63/102/34 15/71/34 47/70/34
