# Blender v2.78 (sub 0) OBJ File: 'CornerSlope.blend'
# www.blender.org
mtllib slopecornerz-.mtl
o Cube
v -0.500000 -0.500000 -0.500000
v 0.500000 -0.500000 -0.500000
v 0.500000 -0.500000 0.500000
v -0.500000 -0.500000 0.500000
v -0.500000 0.500000 0.500000
vt 0.0000 0.0000
vt 1.0000 0.0000
vt 1.0000 1.0000
vt 0.0000 1.0000
vt 0.0000 0.0000
vt 1.0000 0.0000
vt 1.0000 1.0000
vt 1.0000 0.0000
vt 1.0000 1.0000
vt 0.0000 0.0000
vt 1.0000 0.0000
vt 0.0000 0.0000
vn 0.0000 -1.0000 0.0000
vn -0.0000 -0.0000 1.0000
vn -1.0000 0.0000 -0.0000
vn -0.0000 0.7071 -0.7071
vn 0.7071 0.7071 0.0000
usemtl Material
s off
f 1/1/1 2/2/1 3/3/1 4/4/1
f 4/5/2 3/6/2 5/7/2
f 4/5/3 5/8/3 1/9/3
f 2/10/4 1/11/4 5/7/4
f 3/12/5 2/2/5 5/7/5
