# Blender v2.78 (sub 0) OBJ File: 'SlopeInsideCornerX+.blend'
# www.blender.org
mtllib slopeinsidecornerx-.mtl
o Cube
v -0.500000 -0.500000 0.500000
v -0.500000 -0.500000 -0.500000
v 0.500000 -0.500000 -0.500000
v 0.500000 -0.500000 0.500000
v -0.500000 0.500000 0.500000
v 0.500000 0.500000 -0.500000
v 0.500000 0.500000 0.500000
vt 0.0000 0.0000
vt 1.0000 1.0000
vt 0.0000 1.0000
vt 0.0000 0.0000
vt 1.0000 0.0000
vt 1.0000 1.0000
vt 0.0000 0.0000
vt 1.0000 0.0000
vt 1.0000 1.0000
vt 0.0000 0.0000
vt 1.0000 1.0000
vt 1.0000 0.0000
vt 1.0000 0.0000
vt 0.0000 1.0000
vt 0.0000 0.0000
vt 1.0000 1.0000
vt 1.0000 1.0000
vn 0.0000 -1.0000 0.0000
vn 0.0000 0.0000 -1.0000
vn 0.0000 0.7071 -0.7071
vn -0.7071 0.7071 -0.0000
vn 1.0000 -0.0000 0.0000
vn -0.0000 0.0000 1.0000
vn -1.0000 -0.0000 0.0000
usemtl Material
s off
f 1/1/1 3/2/1 4/3/1
f 3/4/2 2/5/2 6/6/2
f 5/7/3 7/8/3 2/9/3
f 6/10/4 2/5/4 7/11/4
f 6/12/5 4/3/5 3/4/5
f 1/13/6 7/14/6 5/7/6
f 2/15/7 1/13/7 5/16/7
f 1/1/1 2/5/1 3/2/1
f 6/12/5 7/11/5 4/3/5
f 1/13/6 4/17/6 7/14/6
