# Blender v2.78 (sub 0) OBJ File: 'twostepstairs.blend'
# www.blender.org
mtllib twostepstairsz-.mtl
o Plane.002_Plane.003
v 0.500000 0.500000 -0.000000
v 0.500000 -0.000000 -0.000000
v -0.500000 0.500000 0.000000
v -0.500000 -0.000000 0.000000
v 0.500000 0.500000 0.500000
v -0.500000 0.500000 0.500000
v 0.500000 -0.500000 0.500000
v -0.500000 -0.500000 0.500000
v 0.500000 -0.500000 -0.500000
v -0.500000 -0.500000 -0.500000
v 0.500000 -0.000000 -0.500000
v -0.500000 -0.000000 -0.500000
vt 1.0000 0.0000
vt 0.0000 1.0000
vt 0.0000 0.0000
vt 1.0000 0.0000
vt 0.0000 1.0000
vt 0.0000 0.0000
vt 1.0000 0.0000
vt 0.0000 1.0000
vt 1.0000 0.0000
vt 0.0000 1.0000
vt 0.0000 0.0000
vt 1.0000 0.0000
vt 0.0000 1.0000
vt 0.0000 0.0000
vt 1.0000 0.0000
vt 0.0000 1.0000
vt 0.0000 0.0000
vt 1.0000 0.0000
vt 0.0000 0.0000
vt 0.0000 0.0000
vt 1.0000 1.0000
vt 0.0000 0.0000
vt 1.0000 1.0000
vt 1.0000 1.0000
vt 1.0000 1.0000
vt 1.0000 1.0000
vt 1.0000 1.0000
vt 1.0000 1.0000
vn -0.0000 -0.0000 -1.0000
vn 0.0000 1.0000 0.0000
vn 0.0000 0.0000 1.0000
vn -0.0000 -1.0000 -0.0000
vn -1.0000 0.0000 0.0000
vn 1.0000 0.0000 -0.0000
usemtl None
s off
f 2/1/1 3/2/1 1/3/1
f 1/4/2 6/5/2 5/6/2
f 6/7/3 7/8/3 5/6/3
f 8/9/4 9/10/4 7/11/4
f 9/12/1 12/13/1 11/14/1
f 11/15/2 4/16/2 2/17/2
f 4/18/5 6/5/5 3/19/5
f 10/20/5 4/21/5 12/13/5
f 9/22/6 2/23/6 7/8/6
f 2/17/6 5/24/6 7/8/6
f 2/1/1 4/21/1 3/2/1
f 1/4/2 3/25/2 6/5/2
f 6/7/3 8/26/3 7/8/3
f 8/9/4 10/27/4 9/10/4
f 9/12/1 10/27/1 12/13/1
f 11/15/2 12/28/2 4/16/2
f 4/18/5 8/26/5 6/5/5
f 10/20/5 8/9/5 4/21/5
f 9/22/6 11/15/6 2/23/6
f 2/17/6 1/4/6 5/24/6
