# Blender v2.78 (sub 0) OBJ File: 'wellroof.blend'
# www.blender.org
o Cube.003
v -0.500000 0.000000 0.500000
v -0.500000 0.020000 0.500000
v -0.500000 0.000000 -0.500000
v -0.500000 0.020000 -0.500000
v 0.000000 0.480000 0.500000
v 0.000000 0.500000 0.500000
v 0.000000 0.480000 -0.500000
v 0.000000 0.500000 -0.500000
v 0.500000 0.000000 0.500000
v 0.500000 0.020000 0.500000
v 0.500000 0.000000 -0.500000
v 0.500000 0.020000 -0.500000
vn -1.0000 0.0000 0.0000
vn 0.0000 0.0000 -1.0000
vn 1.0000 0.0000 0.0000
vn 0.0000 0.0000 1.0000
vn 0.6925 -0.7214 0.0000
vn -0.6925 0.7214 0.0000
vn -0.6925 -0.7214 0.0000
vn 0.6925 0.7214 0.0000
s off
f 2//1 3//1 1//1
f 4//2 7//2 3//2
f 8//3 5//3 7//3
f 5//4 2//4 1//4
f 7//5 1//5 3//5
f 4//6 6//6 8//6
f 7//2 12//2 11//2
f 12//3 9//3 11//3
f 10//4 5//4 9//4
f 11//7 5//7 7//7
f 8//8 10//8 12//8
f 2//1 4//1 3//1
f 4//2 8//2 7//2
f 8//3 6//3 5//3
f 5//4 6//4 2//4
f 7//5 5//5 1//5
f 4//6 2//6 6//6
f 7//2 8//2 12//2
f 12//3 10//3 9//3
f 10//4 6//4 5//4
f 11//7 9//7 5//7
f 8//8 6//8 10//8
o Cube_Cube.006
v -0.030000 -0.500000 0.480000
v -0.030000 -0.500000 0.420000
v 0.030000 -0.500000 0.480000
v 0.030000 -0.500000 0.420000
v 0.000000 0.480000 0.420000
v -0.030000 0.451200 0.420000
v -0.030000 0.451200 0.480000
v 0.000000 0.480000 0.480000
v 0.030000 0.451200 0.420000
v 0.030000 0.451200 0.480000
vn -1.0000 0.0000 0.0000
vn 0.0000 0.0000 -1.0000
vn 1.0000 0.0000 0.0000
vn 0.0000 0.0000 1.0000
vn 0.0000 -1.0000 0.0000
s off
f 19//9 14//9 13//9
f 18//10 21//10 16//10
f 21//11 15//11 16//11
f 22//12 19//12 13//12
f 16//13 13//13 14//13
f 19//9 18//9 14//9
f 16//10 14//10 18//10
f 18//10 17//10 21//10
f 21//11 22//11 15//11
f 13//12 15//12 22//12
f 22//12 20//12 19//12
f 16//13 15//13 13//13
o Cube.001_Cube.007
v -0.030000 -0.500000 -0.420000
v -0.030000 -0.500000 -0.480000
v 0.030000 -0.500000 -0.420000
v 0.030000 -0.500000 -0.480000
v 0.000000 0.480000 -0.480000
v -0.030000 0.451200 -0.480000
v -0.030000 0.451200 -0.420000
v 0.000000 0.480000 -0.420000
v 0.030000 0.451200 -0.480000
v 0.030000 0.451200 -0.420000
vn -1.0000 0.0000 0.0000
vn 0.0000 0.0000 -1.0000
vn 1.0000 0.0000 0.0000
vn 0.0000 0.0000 1.0000
vn 0.0000 -1.0000 0.0000
s off
f 29//14 24//14 23//14
f 28//15 31//15 26//15
f 31//16 25//16 26//16
f 32//17 29//17 23//17
f 26//18 23//18 24//18
f 29//14 28//14 24//14
f 26//15 24//15 28//15
f 28//15 27//15 31//15
f 31//16 32//16 25//16
f 23//17 25//17 32//17
f 32//17 30//17 29//17
f 26//18 25//18 23//18
