# Blender v2.78 (sub 0) OBJ File: 'window.blend'
# www.blender.org
o Cube_Cube.005
v 0.009900 -0.009900 0.050000
v -0.009900 -0.009900 0.050000
v 0.009900 -0.009900 -0.050000
v -0.009900 -0.009900 -0.050000
v 0.009900 0.009900 0.050000
v -0.009900 0.009900 0.050000
v 0.009900 0.009900 -0.050000
v -0.009900 0.009900 -0.050000
v -0.475000 -0.009997 0.050000
v -0.475002 0.009997 0.050000
v -0.475000 0.009378 -0.050000
v -0.475002 -0.009997 -0.050000
v 0.475000 -0.009997 0.050000
v 0.475002 0.009997 0.050000
v 0.475000 -0.010000 -0.050000
v 0.475000 0.010000 -0.050000
v -0.475000 0.010000 -0.050000
v 0.500000 -0.500000 0.500000
v 0.500000 0.500000 0.500000
v -0.500000 -0.500000 0.500000
v -0.500000 0.500000 0.500000
v 0.500000 -0.500000 -0.500000
v 0.500000 0.500000 -0.500000
v -0.500000 -0.500000 -0.500000
v -0.500000 0.500000 -0.500000
v 0.475000 -0.475000 -0.500000
v 0.475000 -0.475000 0.500000
v -0.475000 -0.475000 -0.500000
v -0.475000 -0.475000 0.500000
v 0.475000 -0.282449 -0.500000
v 0.475000 0.192551 0.500000
v -0.475000 0.475000 -0.500000
v -0.475000 0.475000 0.500000
v 0.475000 0.475000 -0.500000
v 0.475000 0.475000 0.500000
v 0.475000 0.010000 0.050000
v 0.475000 -0.010000 0.050000
v -0.475000 -0.010000 -0.050000
v -0.475000 0.010000 0.050000
v -0.475000 -0.010000 0.050000
v -0.475000 -0.009997 0.050000
v -0.475000 -0.009997 -0.046876
v -0.475000 -0.009997 -0.050000
v -0.475002 -0.009997 -0.050000
v -0.009997 -0.475000 -0.050000
v -0.009997 -0.475000 0.050000
v 0.475000 -0.009997 0.050000
v 0.009997 -0.475000 -0.050000
v 0.009997 -0.475000 0.050000
v 0.475002 0.009997 0.050000
v 0.475000 0.009997 0.050000
v 0.475000 0.009997 -0.050000
v -0.475000 0.009997 -0.050000
v -0.475000 0.009997 0.050000
v -0.009997 0.475000 0.050000
v -0.009997 0.475000 -0.050000
v 0.009378 0.475000 -0.050000
v 0.009997 0.475000 -0.050000
v 0.009997 0.475000 0.050000
v 0.475000 0.009997 -0.050000
v -0.475000 -0.009378 0.050000
v -0.475000 0.009997 -0.050000
vt 0.0000 0.0000
vt 0.0000 0.0000
vt 0.0000 0.0000
vt 0.0000 0.0000
vt 0.0000 0.0000
vt 0.0000 0.0000
vt 0.0000 0.0000
vt 0.0000 0.0000
vt 0.0000 0.0000
vt 0.0000 0.0000
vt 0.0000 0.0000
vt 0.0000 0.0000
vt 0.0000 0.0000
vt 0.0000 0.0000
vt 0.0000 0.0000
vt 0.0000 0.0000
vt 0.0000 0.0000
vt 0.0000 0.0000
vt 0.0000 0.0000
vt 0.0000 0.0000
vt 0.0000 0.0000
vt 0.0000 0.0000
vt 0.0000 0.0000
vt 0.0000 0.0000
vt 0.0000 0.0000
vt 0.0000 0.0000
vt 0.0000 0.0000
vt 0.0000 0.0000
vt 0.0000 0.0000
vt 0.0000 0.0000
vt 0.0000 0.0000
vt 0.0000 0.0000
vt 0.0000 0.0000
vt 0.0000 0.0000
vt 0.0000 0.0000
vt 0.0000 0.0000
vt 0.0000 0.0000
vt 0.0000 0.0000
vt 0.0000 0.0000
vt 0.0000 0.0000
vt 0.0000 0.0000
vt 0.0000 0.0000
vt 0.0000 0.0000
vt 0.0000 0.0000
vt 0.0000 0.0000
vt 0.0000 0.0000
vt 0.0000 0.0000
vt 0.0000 0.0000
vt 0.0000 0.0000
vt 0.0000 0.0000
vt 0.0000 0.0000
vt 0.0000 0.0000
vt 0.0000 0.0000
vt 0.0000 0.0000
vt 0.0000 0.0000
vt 0.0000 0.0000
vt 1.0000 0.0000
vt 0.0000 1.0000
vt 0.0000 0.0000
vt 0.0000 0.0000
vt 0.0000 0.0000
vt 1.0000 1.0000
vn -0.0000 0.0000 1.0000
vn 1.0000 -0.0002 -0.0000
vn -1.0000 -0.0002 0.0000
vn 0.0000 -0.0000 -1.0000
vn 0.0002 -1.0000 -0.0000
vn -0.2102 0.0000 0.9777
vn -0.0002 -1.0000 -0.0000
vn 0.0000 1.0000 0.0000
vn 0.8040 0.5946 -0.0006
vn -1.0000 0.0000 0.0000
vn 0.0000 -1.0000 0.0000
vn 1.0000 -0.0000 0.0000
vn 0.1571 0.0000 0.9876
vn -1.0000 0.0002 0.0000
vn -0.8041 -0.5945 0.0000
vn 1.0000 0.0002 -0.0000
vn 0.0002 1.0000 -0.0062
vn 0.0002 1.0000 0.0000
vn -0.0002 1.0000 0.0000
vn -0.0001 -1.0000 -0.0001
vn -0.7788 -0.5800 0.2390
vn -1.0000 0.0001 -0.0001
vn -0.0026 0.0000 1.0000
vn 1.0000 0.0001 -0.0001
s off
f 59/1/1 6/2/1 5/3/1
f 58/4/2 5/3/2 7/5/2
f 55/6/3 8/7/3 6/2/3
f 57/8/4 58/4/4 7/5/4
f 9/9/1 6/2/1 10/10/1
f 4/11/5 9/9/5 12/12/5
f 6/2/6 62/13/6 11/14/6
f 11/14/4 4/11/4 12/12/4
f 13/15/1 51/16/1 5/3/1
f 15/17/7 1/18/7 3/19/7
f 50/20/8 60/21/8 51/16/8
f 60/21/4 15/17/4 3/19/4
f 1/18/1 6/2/1 2/22/1
f 4/11/4 7/5/4 3/19/4
f 9/9/1 41/23/1 40/24/1
f 12/12/9 42/25/9 38/26/9
f 21/27/10 24/28/10 20/29/10
f 18/30/1 29/31/1 20/29/1
f 24/28/4 26/32/4 22/33/4
f 24/28/11 18/30/11 20/29/11
f 21/27/8 23/34/8 25/35/8
f 28/36/12 38/26/12 42/25/12
f 34/37/4 25/35/4 23/34/4
f 33/38/1 35/39/1 19/40/1
f 27/41/8 49/42/8 29/31/8
f 34/37/11 35/39/11 58/4/11
f 27/41/10 37/43/10 15/17/10
f 11/14/12 17/44/12 10/10/12
f 37/43/1 13/15/1 47/45/1
f 36/46/10 35/39/10 34/37/10
f 42/25/12 9/9/12 40/24/12
f 45/47/4 3/19/4 48/48/4
f 17/44/13 12/12/13 11/14/13
f 46/49/14 4/11/14 45/47/14
f 14/50/1 50/20/1 51/16/1
f 14/50/15 36/46/15 16/51/15
f 48/48/16 1/18/16 49/42/16
f 9/9/12 33/38/12 29/31/12
f 56/52/11 32/53/11 57/8/11
f 49/42/1 2/22/1 46/49/1
f 15/17/12 16/51/12 52/54/12
f 45/47/8 26/32/8 28/36/8
f 9/9/1 39/55/1 61/56/1
f 47/45/1 13/15/1 15/17/1
f 22/57/12 19/58/12 18/30/12
f 14/50/1 13/15/1 47/45/1
f 59/1/1 55/6/1 6/2/1
f 58/4/2 59/1/2 5/3/2
f 55/6/3 56/52/3 8/7/3
f 7/5/4 8/7/4 56/52/4
f 56/52/4 57/8/4 7/5/4
f 9/9/1 2/22/1 6/2/1
f 4/11/5 2/22/5 9/9/5
f 11/14/17 10/10/17 6/2/17
f 6/2/18 8/7/18 62/13/18
f 11/14/4 62/13/4 8/7/4
f 8/7/4 4/11/4 11/14/4
f 5/3/1 1/18/1 13/15/1
f 13/15/1 14/50/1 51/16/1
f 15/17/7 13/15/7 1/18/7
f 7/5/19 5/3/19 51/16/19
f 50/20/1 14/50/1 16/51/1
f 7/5/19 51/16/19 60/21/19
f 50/20/10 16/51/10 60/21/10
f 3/19/4 7/5/4 60/21/4
f 60/21/1 16/51/1 15/17/1
f 1/18/1 5/3/1 6/2/1
f 4/11/4 8/7/4 7/5/4
f 21/27/10 25/35/10 24/28/10
f 18/30/1 19/40/1 31/59/1
f 18/30/1 31/59/1 27/41/1
f 33/38/1 21/27/1 20/29/1
f 18/30/1 27/41/1 29/31/1
f 29/31/1 33/38/1 20/29/1
f 24/28/4 25/35/4 28/36/4
f 25/35/4 32/53/4 28/36/4
f 26/32/4 30/60/4 22/33/4
f 24/28/4 28/36/4 26/32/4
f 24/28/11 22/33/11 18/30/11
f 21/27/8 19/40/8 23/34/8
f 40/24/12 29/31/12 42/25/12
f 28/36/12 32/53/12 11/14/12
f 53/61/12 11/14/12 32/53/12
f 32/53/12 17/44/12 53/61/12
f 42/25/12 29/31/12 28/36/12
f 28/36/12 11/14/12 38/26/12
f 23/34/4 22/33/4 30/60/4
f 34/37/4 32/53/4 25/35/4
f 23/34/4 30/60/4 34/37/4
f 19/40/1 21/27/1 33/38/1
f 35/39/1 31/59/1 19/40/1
f 27/41/8 26/32/8 48/48/8
f 49/42/8 46/49/8 29/31/8
f 27/41/8 48/48/8 49/42/8
f 35/39/11 33/38/11 55/6/11
f 35/39/11 55/6/11 59/1/11
f 58/4/20 57/8/20 34/37/20
f 35/39/11 59/1/11 58/4/11
f 30/60/10 26/32/10 15/17/10
f 27/41/10 31/59/10 37/43/10
f 37/43/10 47/45/10 15/17/10
f 15/17/10 26/32/10 27/41/10
f 33/38/12 10/10/12 17/44/12
f 17/44/12 32/53/12 33/38/12
f 34/37/10 30/60/10 16/51/10
f 15/17/10 52/54/10 16/51/10
f 31/59/10 35/39/10 36/46/10
f 47/45/10 37/43/10 31/59/10
f 36/46/21 14/50/21 31/59/21
f 30/60/10 15/17/10 16/51/10
f 14/50/22 47/45/22 31/59/22
f 34/37/10 16/51/10 36/46/10
f 42/25/8 12/12/8 9/9/8
f 45/47/4 4/11/4 3/19/4
f 11/14/10 53/61/10 17/44/10
f 12/12/23 38/26/23 11/14/23
f 46/49/14 2/22/14 4/11/14
f 48/48/16 3/19/16 1/18/16
f 29/31/12 40/24/12 9/9/12
f 9/9/24 10/10/24 33/38/24
f 56/52/11 55/6/11 33/38/11
f 32/53/11 34/37/11 57/8/11
f 56/52/11 33/38/11 32/53/11
f 49/42/1 1/18/1 2/22/1
f 28/36/8 29/31/8 46/49/8
f 45/47/8 48/48/8 26/32/8
f 28/36/8 46/49/8 45/47/8
f 61/56/1 41/23/1 9/9/1
f 9/9/4 10/10/4 39/55/4
f 22/57/12 23/62/12 19/58/12
l 43 44
l 12 44
l 47 50
l 10 54
l 53 43
l 41 54
