# Blender v2.78 (sub 0) OBJ File: 'windowtwohigh.blend'
# www.blender.org
mtllib windowtwohighxz.mtl
o Cube.002
v 0.490000 -0.020000 0.020000
v 0.490000 0.020000 0.020000
v -0.490000 -0.020000 0.020000
v -0.490000 0.020000 0.020000
v 0.490000 -0.020000 -0.020000
v 0.490000 0.020000 -0.020000
v -0.490000 -0.020000 -0.020000
v -0.490000 0.020000 -0.020000
vt 0.0000 0.0000
vt 1.0000 0.0000
vt 1.0000 1.0000
vt 0.0000 1.0000
vt 0.0000 0.0000
vt 1.0000 0.0000
vt 1.0000 1.0000
vt 0.0000 1.0000
vt 0.0000 0.0000
vt 1.0000 0.0000
vt 1.0000 1.0000
vt 0.0000 1.0000
vt 0.0000 0.0000
vt 1.0000 0.0000
vt 1.0000 1.0000
vt 0.0000 1.0000
vt 1.0000 0.0000
vt 1.0000 1.0000
vt 0.0000 0.0000
vt 0.0000 1.0000
vn 0.0000 0.0000 1.0000
vn -1.0000 0.0000 0.0000
vn -0.0000 0.0000 -1.0000
vn 1.0000 0.0000 0.0000
vn 0.0000 -1.0000 0.0000
vn 0.0000 1.0000 0.0000
usemtl None
s off
f 1/1/1 2/2/1 4/3/1 3/4/1
f 3/5/2 4/6/2 8/7/2 7/8/2
f 7/9/3 8/10/3 6/11/3 5/12/3
f 5/13/4 6/14/4 2/15/4 1/16/4
f 3/5/5 7/17/5 5/18/5 1/16/5
f 8/19/6 4/6/6 2/15/6 6/20/6
o Cube.001
v -0.019000 -0.480000 0.020000
v -0.019000 0.480000 0.020000
v -0.019000 -0.480000 -0.020000
v -0.019000 0.480000 -0.020000
v 0.019000 -0.480000 0.020000
v 0.019000 0.480000 0.020000
v 0.019000 -0.480000 -0.020000
v 0.019000 0.480000 -0.020000
vt 0.0000 0.0000
vt 1.0000 0.0000
vt 1.0000 1.0000
vt 0.0000 1.0000
vt 0.0000 0.0000
vt 1.0000 0.0000
vt 1.0000 1.0000
vt 0.0000 1.0000
vt 0.0000 0.0000
vt 1.0000 0.0000
vt 1.0000 1.0000
vt 0.0000 1.0000
vt 0.0000 0.0000
vt 1.0000 0.0000
vt 1.0000 1.0000
vt 0.0000 1.0000
vt 1.0000 0.0000
vt 1.0000 1.0000
vt 0.0000 0.0000
vt 0.0000 1.0000
vn -1.0000 0.0000 0.0000
vn 0.0000 0.0000 -1.0000
vn 1.0000 0.0000 0.0000
vn 0.0000 0.0000 1.0000
vn 0.0000 -1.0000 0.0000
vn 0.0000 1.0000 0.0000
usemtl None
s off
f 9/21/7 10/22/7 12/23/7 11/24/7
f 11/25/8 12/26/8 16/27/8 15/28/8
f 15/29/9 16/30/9 14/31/9 13/32/9
f 13/33/10 14/34/10 10/35/10 9/36/10
f 11/25/11 15/37/11 13/38/11 9/36/11
f 16/39/12 12/26/12 10/35/12 14/40/12
o Cube
v -0.500000 -0.500000 -0.050000
v 0.500000 -0.500000 -0.050000
v 0.500000 -0.500000 0.050000
v -0.500000 -0.500000 0.050000
v -0.500000 1.500000 -0.050000
v 0.500000 1.500000 -0.050000
v 0.500000 1.500000 0.050000
v -0.500000 1.500000 0.050000
v 0.475000 -0.450000 0.050000
v 0.475000 -0.450000 -0.050000
v -0.475000 -0.450000 0.050000
v -0.475000 -0.450000 -0.050000
v 0.475000 0.025000 -0.050000
v -0.475000 1.450000 0.050000
v -0.475000 0.025000 0.050000
v -0.475000 1.450000 -0.050000
v 0.475000 1.450000 0.050000
v 0.475000 1.450000 -0.050000
vt 0.0000 0.0000
vt 1.0000 0.0000
vt 1.0000 1.0000
vt 0.0000 1.0000
vt 0.0000 0.0000
vt 1.0000 0.0000
vt 1.0000 1.0000
vt 0.0000 1.0000
vt 0.5000 1.0000
vt 0.8909 0.8117
vt 0.9875 0.3887
vt 0.7169 0.0495
vt 0.2831 0.0495
vt 0.0125 0.3887
vt 0.1091 0.8117
vt 0.0000 0.0000
vt 1.0000 0.0000
vt 0.0000 1.0000
vt 0.5000 1.0000
vt 0.8536 0.8536
vt 1.0000 0.5000
vt 0.8536 0.1464
vt 0.5000 0.0000
vt 0.1464 0.1464
vt 0.0000 0.5000
vt 0.1464 0.8536
vt 1.0000 0.0000
vt 1.0000 1.0000
vt 0.0000 1.0000
vt 0.5000 1.0000
vt 0.9755 0.6545
vt 0.7939 0.0955
vt 0.2061 0.0955
vt 0.0245 0.6545
vt 0.5000 1.0000
vt 0.9330 0.7500
vt 0.9330 0.2500
vt 0.5000 0.0000
vt 0.0670 0.2500
vt 0.0670 0.7500
vt 0.0000 0.0000
vt 1.0000 0.0000
vt 1.0000 1.0000
vt 0.0000 1.0000
vt 0.0000 0.0000
vt 1.0000 0.0000
vt 1.0000 1.0000
vt 0.0000 1.0000
vt 0.5000 1.0000
vt 0.9755 0.6545
vt 0.7939 0.0955
vt 0.2061 0.0955
vt 0.0245 0.6545
vt 0.5000 1.0000
vt 0.9755 0.6545
vt 0.7939 0.0955
vt 0.2061 0.0955
vt 0.0245 0.6545
vn 0.0000 -1.0000 0.0000
vn 0.0000 1.0000 -0.0000
vn -0.0000 -0.0000 -1.0000
vn 1.0000 -0.0000 0.0000
vn -0.0000 -0.0000 1.0000
vn -1.0000 0.0000 -0.0000
usemtl Material
s off
f 17/41/13 18/42/13 19/43/13 20/44/13
f 21/45/14 24/46/14 23/47/14 22/48/14
f 17/49/15 21/50/15 32/51/15 28/52/15 26/53/15 29/54/15 18/55/15
f 18/56/16 22/57/16 23/47/16 19/58/16
f 19/59/17 23/60/17 24/61/17 20/62/17 31/63/17 30/64/17 33/65/17 25/66/17
f 21/45/18 17/67/18 20/68/18 24/69/18
f 27/70/16 28/71/16 32/72/16 30/73/16 31/74/16
f 18/75/15 29/76/15 34/77/15 32/78/15 21/79/15 22/80/15
f 25/81/14 26/82/14 28/83/14 27/84/14
f 34/85/13 33/86/13 30/87/13 32/88/13
f 25/89/17 27/90/17 31/91/17 20/92/17 19/93/17
f 26/94/18 25/95/18 33/96/18 34/97/18 29/98/18
o Cube.003
v 0.020000 0.520000 0.019000
v 0.020000 1.480000 0.019000
v -0.020000 0.520000 0.019000
v -0.020000 1.480000 0.019000
v 0.020000 0.520000 -0.019000
v 0.020000 1.480000 -0.019000
v -0.020000 0.520000 -0.019000
v -0.020000 1.480000 -0.019000
vt 0.0000 0.0000
vt 1.0000 0.0000
vt 1.0000 1.0000
vt 0.0000 1.0000
vt 0.0000 0.0000
vt 1.0000 0.0000
vt 1.0000 1.0000
vt 0.0000 1.0000
vt 0.0000 0.0000
vt 1.0000 0.0000
vt 1.0000 1.0000
vt 0.0000 1.0000
vt 0.0000 0.0000
vt 1.0000 0.0000
vt 1.0000 1.0000
vt 0.0000 1.0000
vt 1.0000 0.0000
vt 1.0000 1.0000
vt 0.0000 0.0000
vt 0.0000 1.0000
vn 0.0000 0.0000 1.0000
vn -1.0000 0.0000 0.0000
vn 0.0000 0.0000 -1.0000
vn 1.0000 0.0000 0.0000
vn 0.0000 -1.0000 0.0000
vn 0.0000 1.0000 0.0000
usemtl None
s off
f 35/99/19 36/100/19 38/101/19 37/102/19
f 37/103/20 38/104/20 42/105/20 41/106/20
f 41/107/21 42/108/21 40/109/21 39/110/21
f 39/111/22 40/112/22 36/113/22 35/114/22
f 37/103/23 41/115/23 39/116/23 35/114/23
f 42/117/24 38/104/24 36/113/24 40/118/24
o Cube.004
v 0.490000 0.480000 0.020000
v 0.490000 0.520000 0.020000
v -0.490000 0.480000 0.020000
v -0.490000 0.520000 0.020000
v 0.490000 0.480000 -0.020000
v 0.490000 0.520000 -0.020000
v -0.490000 0.480000 -0.020000
v -0.490000 0.520000 -0.020000
vt 0.0000 0.0000
vt 1.0000 0.0000
vt 1.0000 1.0000
vt 0.0000 1.0000
vt 0.0000 0.0000
vt 1.0000 0.0000
vt 1.0000 1.0000
vt 0.0000 1.0000
vt 0.0000 0.0000
vt 1.0000 0.0000
vt 1.0000 1.0000
vt 0.0000 1.0000
vt 0.0000 0.0000
vt 1.0000 0.0000
vt 1.0000 1.0000
vt 0.0000 1.0000
vt 1.0000 0.0000
vt 1.0000 1.0000
vt 0.0000 0.0000
vt 0.0000 1.0000
vn 0.0000 0.0000 1.0000
vn -1.0000 0.0000 0.0000
vn -0.0000 0.0000 -1.0000
vn 1.0000 0.0000 0.0000
vn 0.0000 -1.0000 0.0000
vn 0.0000 1.0000 0.0000
usemtl None
s off
f 43/119/25 44/120/25 46/121/25 45/122/25
f 45/123/26 46/124/26 50/125/26 49/126/26
f 49/127/27 50/128/27 48/129/27 47/130/27
f 47/131/28 48/132/28 44/133/28 43/134/28
f 45/123/29 49/135/29 47/136/29 43/134/29
f 50/137/30 46/124/30 44/133/30 48/138/30
o Cube.005
v 0.490000 0.980000 0.020000
v 0.490000 1.020000 0.020000
v -0.490000 0.980000 0.020000
v -0.490000 1.020000 0.020000
v 0.490000 0.980000 -0.020000
v 0.490000 1.020000 -0.020000
v -0.490000 0.980000 -0.020000
v -0.490000 1.020000 -0.020000
vt 0.0000 0.0000
vt 1.0000 0.0000
vt 1.0000 1.0000
vt 0.0000 1.0000
vt 0.0000 0.0000
vt 1.0000 0.0000
vt 1.0000 1.0000
vt 0.0000 1.0000
vt 0.0000 0.0000
vt 1.0000 0.0000
vt 1.0000 1.0000
vt 0.0000 1.0000
vt 0.0000 0.0000
vt 1.0000 0.0000
vt 1.0000 1.0000
vt 0.0000 1.0000
vt 1.0000 0.0000
vt 1.0000 1.0000
vt 0.0000 0.0000
vt 0.0000 1.0000
vn 0.0000 0.0000 1.0000
vn -1.0000 0.0000 0.0000
vn -0.0000 0.0000 -1.0000
vn 1.0000 0.0000 0.0000
vn 0.0000 -1.0000 0.0000
vn 0.0000 1.0000 0.0000
usemtl None
s off
f 51/139/31 52/140/31 54/141/31 53/142/31
f 53/143/32 54/144/32 58/145/32 57/146/32
f 57/147/33 58/148/33 56/149/33 55/150/33
f 55/151/34 56/152/34 52/153/34 51/154/34
f 53/143/35 57/155/35 55/156/35 51/154/35
f 58/157/36 54/144/36 52/153/36 56/158/36
